<mxfile host="app.diagrams.net" modified="2023-11-02T02:16:11.732Z" agent="Mozilla/5.0 (Macintosh; Intel Mac OS X 10_15_7) AppleWebKit/605.1.15 (KHTML, like Gecko) Version/15.4 Safari/605.1.15" etag="N2JbJokUkJK8ISLUFCNL" version="22.0.8" type="device">
  <diagram name="Страница — 1" id="FAmTHTSLJUuyP5YN9Xrz">
    <mxGraphModel dx="1026" dy="692" grid="0" gridSize="10" guides="1" tooltips="1" connect="1" arrows="1" fold="1" page="1" pageScale="1" pageWidth="3300" pageHeight="5500" math="0" shadow="0">
      <root>
        <mxCell id="0" />
        <mxCell id="1" parent="0" />
        <mxCell id="uZYmgcz1Foe-FGkYyfnS-1" value="Any User" style="shape=umlActor;verticalLabelPosition=bottom;verticalAlign=top;html=1;strokeColor=#457B9D;fontColor=#1D3557;fillColor=#A8DADC;labelBackgroundColor=none;" vertex="1" parent="1">
          <mxGeometry x="105" y="80" width="30" height="60" as="geometry" />
        </mxCell>
        <mxCell id="uZYmgcz1Foe-FGkYyfnS-2" value="UI" style="shape=umlBoundary;whiteSpace=wrap;html=1;strokeColor=#457B9D;fontColor=#1D3557;fillColor=#A8DADC;labelBackgroundColor=none;" vertex="1" parent="1">
          <mxGeometry x="360" y="85" width="70" height="55" as="geometry" />
        </mxCell>
        <mxCell id="uZYmgcz1Foe-FGkYyfnS-3" value="Files DB" style="ellipse;shape=umlEntity;whiteSpace=wrap;html=1;strokeColor=#457B9D;fontColor=#1D3557;fillColor=#A8DADC;labelBackgroundColor=none;" vertex="1" parent="1">
          <mxGeometry x="1210" y="85" width="60" height="60" as="geometry" />
        </mxCell>
        <mxCell id="uZYmgcz1Foe-FGkYyfnS-4" value="Logins&lt;br&gt;&amp;nbsp;DB" style="ellipse;shape=umlEntity;whiteSpace=wrap;html=1;strokeColor=#457B9D;fontColor=#1D3557;fillColor=#A8DADC;labelBackgroundColor=none;" vertex="1" parent="1">
          <mxGeometry x="930" y="85" width="60" height="60" as="geometry" />
        </mxCell>
        <mxCell id="uZYmgcz1Foe-FGkYyfnS-5" value="User&amp;nbsp;&lt;br&gt;Based&lt;br&gt;Back" style="ellipse;shape=umlControl;whiteSpace=wrap;html=1;strokeColor=#457B9D;fontColor=#1D3557;fillColor=#A8DADC;labelBackgroundColor=none;" vertex="1" parent="1">
          <mxGeometry x="650" y="75" width="60" height="70" as="geometry" />
        </mxCell>
        <mxCell id="uZYmgcz1Foe-FGkYyfnS-6" value="Complaint&lt;br&gt;Modifying&lt;br&gt;Trans-action&amp;nbsp;" style="ellipse;shape=umlControl;whiteSpace=wrap;html=1;strokeColor=#457B9D;fontColor=#1D3557;fillColor=#A8DADC;labelBackgroundColor=none;" vertex="1" parent="1">
          <mxGeometry x="1486" y="70" width="70" height="80" as="geometry" />
        </mxCell>
        <mxCell id="uZYmgcz1Foe-FGkYyfnS-7" value="" style="endArrow=none;dashed=1;html=1;dashPattern=1 3;strokeWidth=2;rounded=0;entryX=0.5;entryY=0.5;entryDx=0;entryDy=0;entryPerimeter=0;labelBackgroundColor=none;strokeColor=#457B9D;fontColor=default;" edge="1" parent="1" source="uZYmgcz1Foe-FGkYyfnS-133" target="uZYmgcz1Foe-FGkYyfnS-1">
          <mxGeometry width="50" height="50" relative="1" as="geometry">
            <mxPoint x="120" y="5200" as="sourcePoint" />
            <mxPoint x="160" y="300" as="targetPoint" />
          </mxGeometry>
        </mxCell>
        <mxCell id="uZYmgcz1Foe-FGkYyfnS-8" value="" style="endArrow=none;dashed=1;html=1;dashPattern=1 3;strokeWidth=2;rounded=0;entryX=0.557;entryY=1.018;entryDx=0;entryDy=0;entryPerimeter=0;labelBackgroundColor=none;strokeColor=#457B9D;fontColor=default;" edge="1" parent="1" target="uZYmgcz1Foe-FGkYyfnS-2">
          <mxGeometry width="50" height="50" relative="1" as="geometry">
            <mxPoint x="399" y="5200" as="sourcePoint" />
            <mxPoint x="400" y="170" as="targetPoint" />
          </mxGeometry>
        </mxCell>
        <mxCell id="uZYmgcz1Foe-FGkYyfnS-9" value="" style="endArrow=none;dashed=1;html=1;dashPattern=1 3;strokeWidth=2;rounded=0;entryX=0.467;entryY=1.014;entryDx=0;entryDy=0;entryPerimeter=0;labelBackgroundColor=none;strokeColor=#457B9D;fontColor=default;" edge="1" parent="1" source="uZYmgcz1Foe-FGkYyfnS-196" target="uZYmgcz1Foe-FGkYyfnS-5">
          <mxGeometry width="50" height="50" relative="1" as="geometry">
            <mxPoint x="681" y="5200" as="sourcePoint" />
            <mxPoint x="680" y="170" as="targetPoint" />
          </mxGeometry>
        </mxCell>
        <mxCell id="uZYmgcz1Foe-FGkYyfnS-10" value="" style="endArrow=none;dashed=1;html=1;dashPattern=1 3;strokeWidth=2;rounded=0;entryX=0.5;entryY=1;entryDx=0;entryDy=0;labelBackgroundColor=none;strokeColor=#457B9D;fontColor=default;" edge="1" parent="1" target="uZYmgcz1Foe-FGkYyfnS-4">
          <mxGeometry width="50" height="50" relative="1" as="geometry">
            <mxPoint x="960" y="5200" as="sourcePoint" />
            <mxPoint x="970" y="1660" as="targetPoint" />
          </mxGeometry>
        </mxCell>
        <mxCell id="uZYmgcz1Foe-FGkYyfnS-11" value="" style="endArrow=none;dashed=1;html=1;dashPattern=1 3;strokeWidth=2;rounded=0;entryX=0.5;entryY=1;entryDx=0;entryDy=0;labelBackgroundColor=none;strokeColor=#457B9D;fontColor=default;" edge="1" parent="1" source="uZYmgcz1Foe-FGkYyfnS-202" target="uZYmgcz1Foe-FGkYyfnS-3">
          <mxGeometry width="50" height="50" relative="1" as="geometry">
            <mxPoint x="1240" y="5200" as="sourcePoint" />
            <mxPoint x="1239.38" y="160" as="targetPoint" />
          </mxGeometry>
        </mxCell>
        <mxCell id="uZYmgcz1Foe-FGkYyfnS-12" value="" style="endArrow=none;dashed=1;html=1;dashPattern=1 3;strokeWidth=2;rounded=0;entryX=0.514;entryY=1.025;entryDx=0;entryDy=0;entryPerimeter=0;labelBackgroundColor=none;strokeColor=#457B9D;fontColor=default;" edge="1" parent="1" source="uZYmgcz1Foe-FGkYyfnS-237" target="uZYmgcz1Foe-FGkYyfnS-6">
          <mxGeometry width="50" height="50" relative="1" as="geometry">
            <mxPoint x="1522" y="5200" as="sourcePoint" />
            <mxPoint x="1520.5" y="160" as="targetPoint" />
          </mxGeometry>
        </mxCell>
        <mxCell id="uZYmgcz1Foe-FGkYyfnS-14" value="&#39;Complaints&#39; Button Pressed" style="html=1;verticalAlign=bottom;endArrow=block;curved=0;rounded=0;labelBackgroundColor=none;strokeColor=#457B9D;fontColor=default;" edge="1" parent="1">
          <mxGeometry width="80" relative="1" as="geometry">
            <mxPoint x="120" y="200" as="sourcePoint" />
            <mxPoint x="400" y="200" as="targetPoint" />
          </mxGeometry>
        </mxCell>
        <mxCell id="uZYmgcz1Foe-FGkYyfnS-15" value="Send Request for Complaints &#39;Themes&#39;" style="html=1;verticalAlign=bottom;endArrow=block;curved=0;rounded=0;labelBackgroundColor=none;strokeColor=#457B9D;fontColor=default;" edge="1" parent="1" source="uZYmgcz1Foe-FGkYyfnS-195">
          <mxGeometry width="80" relative="1" as="geometry">
            <mxPoint x="400" y="240" as="sourcePoint" />
            <mxPoint x="680" y="240" as="targetPoint" />
          </mxGeometry>
        </mxCell>
        <mxCell id="uZYmgcz1Foe-FGkYyfnS-16" value="Get &#39;Department&#39; List and &#39;Role&#39; For Current User" style="html=1;verticalAlign=bottom;endArrow=block;curved=0;rounded=0;labelBackgroundColor=none;strokeColor=#457B9D;fontColor=default;" edge="1" parent="1">
          <mxGeometry width="80" relative="1" as="geometry">
            <mxPoint x="680" y="280" as="sourcePoint" />
            <mxPoint x="960" y="280" as="targetPoint" />
          </mxGeometry>
        </mxCell>
        <mxCell id="uZYmgcz1Foe-FGkYyfnS-17" value="Send &#39;Department&#39; List and &#39;Role&#39; For User" style="html=1;verticalAlign=bottom;endArrow=block;curved=0;rounded=0;labelBackgroundColor=none;strokeColor=#457B9D;fontColor=default;" edge="1" parent="1">
          <mxGeometry width="80" relative="1" as="geometry">
            <mxPoint x="960" y="420" as="sourcePoint" />
            <mxPoint x="680" y="420" as="targetPoint" />
          </mxGeometry>
        </mxCell>
        <mxCell id="uZYmgcz1Foe-FGkYyfnS-19" value="Get All Complaint &#39;Themes&#39; Where &#39;Sender(Department)&#39; Contained in&lt;br&gt;&amp;nbsp;Current User &#39;Department&#39; List and &#39;Recipient (Role)&#39; = &amp;nbsp;Current User &#39;Role&#39;&lt;br&gt;or where &#39;Sender(Login)&#39; or &#39;Recipient (Login)&#39; equal to Current User &#39;Login&#39;&amp;nbsp;" style="html=1;verticalAlign=bottom;endArrow=block;curved=0;rounded=0;labelBackgroundColor=none;strokeColor=#457B9D;fontColor=default;" edge="1" parent="1">
          <mxGeometry width="80" relative="1" as="geometry">
            <mxPoint x="680" y="490" as="sourcePoint" />
            <mxPoint x="1240" y="490" as="targetPoint" />
          </mxGeometry>
        </mxCell>
        <mxCell id="uZYmgcz1Foe-FGkYyfnS-20" value="Form &#39;Theme&#39; List" style="html=1;verticalAlign=bottom;endArrow=block;curved=0;rounded=0;labelBackgroundColor=none;strokeColor=#457B9D;fontColor=default;" edge="1" parent="1">
          <mxGeometry width="80" relative="1" as="geometry">
            <mxPoint x="1240" y="520" as="sourcePoint" />
            <mxPoint x="1240" y="610" as="targetPoint" />
            <Array as="points">
              <mxPoint x="1320" y="520" />
              <mxPoint x="1320" y="610" />
            </Array>
          </mxGeometry>
        </mxCell>
        <mxCell id="uZYmgcz1Foe-FGkYyfnS-21" value="Send &#39;Theme&#39; List" style="html=1;verticalAlign=bottom;endArrow=block;curved=0;rounded=0;labelBackgroundColor=none;strokeColor=#457B9D;fontColor=default;" edge="1" parent="1">
          <mxGeometry width="80" relative="1" as="geometry">
            <mxPoint x="1240" y="640" as="sourcePoint" />
            <mxPoint x="680" y="640" as="targetPoint" />
          </mxGeometry>
        </mxCell>
        <mxCell id="uZYmgcz1Foe-FGkYyfnS-22" value="Send &#39;Theme&#39; List" style="html=1;verticalAlign=bottom;endArrow=block;curved=0;rounded=0;labelBackgroundColor=none;strokeColor=#457B9D;fontColor=default;" edge="1" parent="1">
          <mxGeometry width="80" relative="1" as="geometry">
            <mxPoint x="680" y="680" as="sourcePoint" />
            <mxPoint x="400" y="680" as="targetPoint" />
          </mxGeometry>
        </mxCell>
        <mxCell id="uZYmgcz1Foe-FGkYyfnS-23" value="Show &#39;Theme&#39; List, &#39;Add Complaint&#39; Button" style="html=1;verticalAlign=bottom;endArrow=block;curved=0;rounded=0;labelBackgroundColor=none;strokeColor=#457B9D;fontColor=default;" edge="1" parent="1" source="uZYmgcz1Foe-FGkYyfnS-206">
          <mxGeometry width="80" relative="1" as="geometry">
            <mxPoint x="400" y="720" as="sourcePoint" />
            <mxPoint x="120" y="720" as="targetPoint" />
          </mxGeometry>
        </mxCell>
        <mxCell id="uZYmgcz1Foe-FGkYyfnS-24" value="One of List Items Selected" style="html=1;verticalAlign=bottom;endArrow=block;curved=0;rounded=0;labelBackgroundColor=none;strokeColor=#457B9D;fontColor=default;" edge="1" parent="1">
          <mxGeometry width="80" relative="1" as="geometry">
            <mxPoint x="120" y="839" as="sourcePoint" />
            <mxPoint x="400" y="839" as="targetPoint" />
            <mxPoint as="offset" />
          </mxGeometry>
        </mxCell>
        <mxCell id="uZYmgcz1Foe-FGkYyfnS-25" value="Send Request for all Complaints with selected &#39;Theme&#39;" style="html=1;verticalAlign=bottom;endArrow=block;curved=0;rounded=0;labelBackgroundColor=none;strokeColor=#457B9D;fontColor=default;" edge="1" parent="1">
          <mxGeometry width="80" relative="1" as="geometry">
            <mxPoint x="400" y="879" as="sourcePoint" />
            <mxPoint x="680" y="879" as="targetPoint" />
            <mxPoint as="offset" />
          </mxGeometry>
        </mxCell>
        <mxCell id="uZYmgcz1Foe-FGkYyfnS-26" value="Get All complaints with selected &#39;Theme&#39;&amp;nbsp;Where &#39;Sender(Department)&#39; Contained in&lt;br style=&quot;border-color: var(--border-color);&quot;&gt;&amp;nbsp;Current User &#39;Department&#39; List and &#39;Recipient (Role)&#39; = &amp;nbsp;Current User &#39;Role&#39;&lt;br style=&quot;border-color: var(--border-color);&quot;&gt;or where &#39;Sender(Login)&#39; or &#39;Recipient (Login)&#39; equal to Current User &#39;Login&#39;&amp;nbsp;" style="html=1;verticalAlign=bottom;endArrow=block;curved=0;rounded=0;labelBackgroundColor=none;strokeColor=#457B9D;fontColor=default;" edge="1" parent="1">
          <mxGeometry width="80" relative="1" as="geometry">
            <mxPoint x="680" y="919" as="sourcePoint" />
            <mxPoint x="1240" y="919" as="targetPoint" />
            <mxPoint as="offset" />
          </mxGeometry>
        </mxCell>
        <mxCell id="uZYmgcz1Foe-FGkYyfnS-28" value="Send &#39;Complaints&#39; List&amp;nbsp;With &#39;ID&#39;,&lt;br style=&quot;border-color: var(--border-color);&quot;&gt;&#39;Sender (Login)&#39;, &#39;Sender (Department)&#39;,&lt;br&gt;&#39;Closed Marker&#39;" style="html=1;verticalAlign=bottom;endArrow=block;curved=0;rounded=0;labelBackgroundColor=none;strokeColor=#457B9D;fontColor=default;" edge="1" parent="1">
          <mxGeometry width="80" relative="1" as="geometry">
            <mxPoint x="1240" y="1059" as="sourcePoint" />
            <mxPoint x="680" y="1059" as="targetPoint" />
            <mxPoint as="offset" />
          </mxGeometry>
        </mxCell>
        <mxCell id="uZYmgcz1Foe-FGkYyfnS-29" value="Send &#39;Complaints&#39; List&amp;nbsp;With &#39;ID&#39;,&lt;br style=&quot;border-color: var(--border-color);&quot;&gt;&#39;Sender (Login)&#39;, Sender &#39;Nickname&#39;,&lt;br&gt;&amp;nbsp;&#39;Sender (Department)&#39;,&#39;Closed Marker&#39;" style="html=1;verticalAlign=bottom;endArrow=block;curved=0;rounded=0;labelBackgroundColor=none;strokeColor=#457B9D;fontColor=default;" edge="1" parent="1">
          <mxGeometry x="0.0036" width="80" relative="1" as="geometry">
            <mxPoint x="675" y="1320" as="sourcePoint" />
            <mxPoint x="400" y="1320" as="targetPoint" />
            <mxPoint as="offset" />
          </mxGeometry>
        </mxCell>
        <mxCell id="uZYmgcz1Foe-FGkYyfnS-30" value="Show &#39;Complaints&#39; List Where Elements Description:&lt;br&gt;&quot;№&quot; + &#39;ID&#39; + &quot;Opened By&quot; + &#39;Sender &#39;Nickname&#39;&#39; +&lt;br&gt;&amp;nbsp;+ &quot;(&quot; + &#39;Sender (Login)&#39; + &quot;) from:&quot; + &amp;nbsp;&lt;br&gt;+ &#39;Sender (Department)&#39;&lt;br&gt;(&#39;Complaints&#39; with &#39;Closed Marker&#39; = true in light gray,&lt;br&gt;with false - in pale cyan )" style="html=1;verticalAlign=bottom;endArrow=block;curved=0;rounded=0;labelBackgroundColor=none;strokeColor=#457B9D;fontColor=default;" edge="1" parent="1">
          <mxGeometry width="80" relative="1" as="geometry">
            <mxPoint x="395" y="1400" as="sourcePoint" />
            <mxPoint x="120" y="1400" as="targetPoint" />
            <mxPoint as="offset" />
          </mxGeometry>
        </mxCell>
        <mxCell id="uZYmgcz1Foe-FGkYyfnS-31" value="Get &#39;Nickname&#39; List for &#39;Sender (Login)&#39; list" style="html=1;verticalAlign=bottom;endArrow=block;curved=0;rounded=0;labelBackgroundColor=none;strokeColor=#457B9D;fontColor=default;" edge="1" parent="1">
          <mxGeometry x="0.0036" width="80" relative="1" as="geometry">
            <mxPoint x="680" y="1120" as="sourcePoint" />
            <mxPoint x="960" y="1120" as="targetPoint" />
            <mxPoint as="offset" />
          </mxGeometry>
        </mxCell>
        <mxCell id="uZYmgcz1Foe-FGkYyfnS-32" value="Form &#39;Nickname&#39; List" style="html=1;verticalAlign=bottom;endArrow=block;curved=0;rounded=0;labelBackgroundColor=none;strokeColor=#457B9D;fontColor=default;" edge="1" parent="1">
          <mxGeometry width="80" relative="1" as="geometry">
            <mxPoint x="960" y="1140" as="sourcePoint" />
            <mxPoint x="960" y="1230" as="targetPoint" />
            <Array as="points">
              <mxPoint x="1040" y="1140" />
              <mxPoint x="1040" y="1230" />
            </Array>
          </mxGeometry>
        </mxCell>
        <mxCell id="uZYmgcz1Foe-FGkYyfnS-33" value="Send &#39;Nickname&#39; List for &#39;Sender (Login)&#39; list" style="html=1;verticalAlign=bottom;endArrow=block;curved=0;rounded=0;labelBackgroundColor=none;strokeColor=#457B9D;fontColor=default;" edge="1" parent="1">
          <mxGeometry x="0.0036" width="80" relative="1" as="geometry">
            <mxPoint x="960" y="1270" as="sourcePoint" />
            <mxPoint x="680" y="1270" as="targetPoint" />
            <mxPoint as="offset" />
          </mxGeometry>
        </mxCell>
        <mxCell id="uZYmgcz1Foe-FGkYyfnS-34" value="One of List Items Selected" style="html=1;verticalAlign=bottom;endArrow=block;curved=0;rounded=0;labelBackgroundColor=none;strokeColor=#457B9D;fontColor=default;" edge="1" parent="1">
          <mxGeometry width="80" relative="1" as="geometry">
            <mxPoint x="120" y="1440" as="sourcePoint" />
            <mxPoint x="400" y="1440" as="targetPoint" />
            <mxPoint as="offset" />
          </mxGeometry>
        </mxCell>
        <mxCell id="uZYmgcz1Foe-FGkYyfnS-35" value="Send Request for &#39;Complaint&#39;, &#39;Reply&#39;&lt;br&gt;for Selected &#39;Complaint&#39;" style="html=1;verticalAlign=bottom;endArrow=block;curved=0;rounded=0;labelBackgroundColor=none;strokeColor=#457B9D;fontColor=default;" edge="1" parent="1">
          <mxGeometry width="80" relative="1" as="geometry">
            <mxPoint x="400" y="1480" as="sourcePoint" />
            <mxPoint x="680" y="1480" as="targetPoint" />
            <mxPoint as="offset" />
          </mxGeometry>
        </mxCell>
        <mxCell id="uZYmgcz1Foe-FGkYyfnS-36" value="Get &#39;Complaint&#39;, &#39;Reply&#39;&lt;br&gt;for Selected &#39;Complaint&#39;&lt;br&gt;(by ID)" style="html=1;verticalAlign=bottom;endArrow=block;curved=0;rounded=0;labelBackgroundColor=none;strokeColor=#457B9D;fontColor=default;" edge="1" parent="1">
          <mxGeometry width="80" relative="1" as="geometry">
            <mxPoint x="680" y="1520" as="sourcePoint" />
            <mxPoint x="1240" y="1520" as="targetPoint" />
            <mxPoint as="offset" />
          </mxGeometry>
        </mxCell>
        <mxCell id="uZYmgcz1Foe-FGkYyfnS-38" value="Send &#39;Complaint&#39;, &#39;Reply&#39;&lt;br&gt;for Selected &#39;Complaint&#39;" style="html=1;verticalAlign=bottom;endArrow=block;curved=0;rounded=0;labelBackgroundColor=none;strokeColor=#457B9D;fontColor=default;" edge="1" parent="1">
          <mxGeometry width="80" relative="1" as="geometry">
            <mxPoint x="1240" y="1560" as="sourcePoint" />
            <mxPoint x="680" y="1560" as="targetPoint" />
            <mxPoint as="offset" />
          </mxGeometry>
        </mxCell>
        <mxCell id="uZYmgcz1Foe-FGkYyfnS-39" value="Send &#39;Complaint&#39;, &#39;Reply&#39;&lt;br&gt;for Selected &#39;Complaint&#39;" style="html=1;verticalAlign=bottom;endArrow=block;curved=0;rounded=0;labelBackgroundColor=none;strokeColor=#457B9D;fontColor=default;" edge="1" parent="1">
          <mxGeometry width="80" relative="1" as="geometry">
            <mxPoint x="680" y="1600" as="sourcePoint" />
            <mxPoint x="400" y="1600" as="targetPoint" />
            <mxPoint as="offset" />
          </mxGeometry>
        </mxCell>
        <mxCell id="uZYmgcz1Foe-FGkYyfnS-40" value="Show &#39;Full Complaint info&#39; View With&lt;br&gt;&#39;Complaint Name&#39; (same as lists item description),&lt;br&gt;Content : &#39;Complaint&#39;,&#39;Edit Complaint&#39;,&#39;Close&#39; Button&#39;" style="html=1;verticalAlign=bottom;endArrow=block;curved=0;rounded=0;labelBackgroundColor=none;strokeColor=#457B9D;fontColor=default;" edge="1" parent="1">
          <mxGeometry width="80" relative="1" as="geometry">
            <mxPoint x="400" y="1919" as="sourcePoint" />
            <mxPoint x="120" y="1919" as="targetPoint" />
            <mxPoint as="offset" />
          </mxGeometry>
        </mxCell>
        <mxCell id="uZYmgcz1Foe-FGkYyfnS-45" value="Show &#39;Full Complaint info&#39; View With&lt;br&gt;&#39;Complaint Name&#39; (same as lists item description),&lt;br&gt;Content : Complaint, &#39;Reply&#39; Button" style="html=1;verticalAlign=bottom;endArrow=block;curved=0;rounded=0;labelBackgroundColor=none;strokeColor=#457B9D;fontColor=default;" edge="1" parent="1">
          <mxGeometry width="80" relative="1" as="geometry">
            <mxPoint x="397.5" y="3167" as="sourcePoint" />
            <mxPoint x="117.5" y="3167" as="targetPoint" />
            <mxPoint as="offset" />
          </mxGeometry>
        </mxCell>
        <mxCell id="uZYmgcz1Foe-FGkYyfnS-47" value="" style="endArrow=none;dashed=1;html=1;rounded=0;strokeColor=#457B9D;fontColor=#1D3557;fillColor=#A8DADC;exitX=0;exitY=0.496;exitDx=0;exitDy=0;exitPerimeter=0;" edge="1" parent="1">
          <mxGeometry width="50" height="50" relative="1" as="geometry">
            <mxPoint x="70" y="1959" as="sourcePoint" />
            <mxPoint x="450" y="1959" as="targetPoint" />
          </mxGeometry>
        </mxCell>
        <mxCell id="uZYmgcz1Foe-FGkYyfnS-48" value="&#39;Close&#39; Button Pressed" style="html=1;verticalAlign=bottom;endArrow=block;curved=0;rounded=0;labelBackgroundColor=none;strokeColor=#457B9D;fontColor=default;" edge="1" parent="1">
          <mxGeometry width="80" relative="1" as="geometry">
            <mxPoint x="120" y="2190" as="sourcePoint" />
            <mxPoint x="400" y="2190" as="targetPoint" />
            <mxPoint as="offset" />
          </mxGeometry>
        </mxCell>
        <mxCell id="uZYmgcz1Foe-FGkYyfnS-49" value="Send Request to Close Selected Complaint" style="html=1;verticalAlign=bottom;endArrow=block;curved=0;rounded=0;labelBackgroundColor=none;strokeColor=#457B9D;fontColor=default;" edge="1" parent="1">
          <mxGeometry width="80" relative="1" as="geometry">
            <mxPoint x="400" y="2230" as="sourcePoint" />
            <mxPoint x="680" y="2230" as="targetPoint" />
            <mxPoint as="offset" />
          </mxGeometry>
        </mxCell>
        <mxCell id="uZYmgcz1Foe-FGkYyfnS-50" value="Close Selected Complaint" style="html=1;verticalAlign=bottom;endArrow=block;curved=0;rounded=0;labelBackgroundColor=none;strokeColor=#457B9D;fontColor=default;" edge="1" parent="1">
          <mxGeometry width="80" relative="1" as="geometry">
            <mxPoint x="680" y="2270" as="sourcePoint" />
            <mxPoint x="1522" y="2270" as="targetPoint" />
            <mxPoint as="offset" />
          </mxGeometry>
        </mxCell>
        <mxCell id="uZYmgcz1Foe-FGkYyfnS-51" value="Kafka" style="ellipse;shape=umlEntity;whiteSpace=wrap;html=1;strokeColor=#457B9D;fontColor=#1D3557;fillColor=#A8DADC;labelBackgroundColor=none;" vertex="1" parent="1">
          <mxGeometry x="1770" y="80" width="60" height="60" as="geometry" />
        </mxCell>
        <mxCell id="uZYmgcz1Foe-FGkYyfnS-52" value="" style="endArrow=none;dashed=1;html=1;dashPattern=1 3;strokeWidth=2;rounded=0;entryX=0.5;entryY=1;entryDx=0;entryDy=0;labelBackgroundColor=none;strokeColor=#457B9D;fontColor=default;" edge="1" parent="1" source="uZYmgcz1Foe-FGkYyfnS-260" target="uZYmgcz1Foe-FGkYyfnS-51">
          <mxGeometry width="50" height="50" relative="1" as="geometry">
            <mxPoint x="1800" y="5200" as="sourcePoint" />
            <mxPoint x="1800.37" y="145" as="targetPoint" />
          </mxGeometry>
        </mxCell>
        <mxCell id="uZYmgcz1Foe-FGkYyfnS-56" value="Show &#39;Full Complaint info&#39; View With&lt;br&gt;&#39;Complaint Name&#39; (same as lists item description),&lt;br&gt;Content : &#39;Reply Author&#39;, &#39;Complaint&#39;, &#39;Reply&#39;, &#39;Close&#39; Button&#39;,&lt;br&gt;&#39;Edit Complaint&#39; Button" style="html=1;verticalAlign=bottom;endArrow=block;curved=0;rounded=0;labelBackgroundColor=none;strokeColor=#457B9D;fontColor=default;" edge="1" parent="1">
          <mxGeometry width="80" relative="1" as="geometry">
            <mxPoint x="400" y="2080" as="sourcePoint" />
            <mxPoint x="120" y="2080" as="targetPoint" />
            <mxPoint as="offset" />
          </mxGeometry>
        </mxCell>
        <mxCell id="uZYmgcz1Foe-FGkYyfnS-57" value="Change &#39;Closed Marker&#39; to true&lt;br&gt;for selected Complaint" style="html=1;verticalAlign=bottom;endArrow=block;curved=0;rounded=0;labelBackgroundColor=none;strokeColor=#457B9D;fontColor=default;" edge="1" parent="1">
          <mxGeometry width="80" relative="1" as="geometry">
            <mxPoint x="1520" y="2320" as="sourcePoint" />
            <mxPoint x="1240" y="2320" as="targetPoint" />
            <mxPoint as="offset" />
          </mxGeometry>
        </mxCell>
        <mxCell id="uZYmgcz1Foe-FGkYyfnS-58" value="Send Transaction Result" style="html=1;verticalAlign=bottom;endArrow=block;curved=0;rounded=0;labelBackgroundColor=none;strokeColor=#457B9D;fontColor=default;" edge="1" parent="1">
          <mxGeometry width="80" relative="1" as="geometry">
            <mxPoint x="1520" y="2360" as="sourcePoint" />
            <mxPoint x="678" y="2360" as="targetPoint" />
            <mxPoint as="offset" />
          </mxGeometry>
        </mxCell>
        <mxCell id="uZYmgcz1Foe-FGkYyfnS-61" value="Send Notification To Task Manager to Update the page for&amp;nbsp;&lt;br&gt;each user that can possibly edit closed complaint&lt;br&gt;(to prevent editing)" style="html=1;verticalAlign=bottom;endArrow=block;curved=0;rounded=0;labelBackgroundColor=none;strokeColor=#457B9D;fontColor=default;" edge="1" parent="1">
          <mxGeometry width="80" relative="1" as="geometry">
            <mxPoint x="680" y="2450" as="sourcePoint" />
            <mxPoint x="1800" y="2450" as="targetPoint" />
            <mxPoint as="offset" />
          </mxGeometry>
        </mxCell>
        <mxCell id="uZYmgcz1Foe-FGkYyfnS-62" value="&#39;Edit Complaint&#39; Button Pressed" style="html=1;verticalAlign=bottom;endArrow=block;curved=0;rounded=0;labelBackgroundColor=none;strokeColor=#457B9D;fontColor=default;" edge="1" parent="1">
          <mxGeometry width="80" relative="1" as="geometry">
            <mxPoint x="120" y="2561" as="sourcePoint" />
            <mxPoint x="400" y="2561" as="targetPoint" />
            <mxPoint as="offset" />
          </mxGeometry>
        </mxCell>
        <mxCell id="uZYmgcz1Foe-FGkYyfnS-64" value="Show &#39;Add Complaint&#39; View&lt;br&gt;But with Prefilled fields: Recipient(Role)/&lt;br&gt;Recipient(Login), Theme, Complaint&amp;nbsp;" style="html=1;verticalAlign=bottom;endArrow=block;curved=0;rounded=0;labelBackgroundColor=none;strokeColor=#457B9D;fontColor=default;" edge="1" parent="1">
          <mxGeometry width="80" relative="1" as="geometry">
            <mxPoint x="400" y="2631" as="sourcePoint" />
            <mxPoint x="120" y="2631" as="targetPoint" />
            <mxPoint as="offset" />
          </mxGeometry>
        </mxCell>
        <mxCell id="uZYmgcz1Foe-FGkYyfnS-65" value="&#39;Send&#39; Button Pressed" style="html=1;verticalAlign=bottom;endArrow=block;curved=0;rounded=0;labelBackgroundColor=none;strokeColor=#457B9D;fontColor=default;" edge="1" parent="1">
          <mxGeometry width="80" relative="1" as="geometry">
            <mxPoint x="120" y="2720" as="sourcePoint" />
            <mxPoint x="400" y="2720" as="targetPoint" />
            <mxPoint as="offset" />
          </mxGeometry>
        </mxCell>
        <mxCell id="uZYmgcz1Foe-FGkYyfnS-66" value="Send Selected Complaint Id,&amp;nbsp;Recipient(Role)/&lt;br style=&quot;border-color: var(--border-color);&quot;&gt;Recipient(Login), Theme, Complaint&amp;nbsp;" style="html=1;verticalAlign=bottom;endArrow=block;curved=0;rounded=0;labelBackgroundColor=none;strokeColor=#457B9D;fontColor=default;" edge="1" parent="1">
          <mxGeometry width="80" relative="1" as="geometry">
            <mxPoint x="400" y="2759" as="sourcePoint" />
            <mxPoint x="680" y="2759" as="targetPoint" />
            <mxPoint as="offset" />
          </mxGeometry>
        </mxCell>
        <mxCell id="uZYmgcz1Foe-FGkYyfnS-67" value="One/Many/Zero Field was Edited" style="html=1;verticalAlign=bottom;endArrow=block;curved=0;rounded=0;labelBackgroundColor=none;strokeColor=#457B9D;fontColor=default;" edge="1" parent="1">
          <mxGeometry width="80" relative="1" as="geometry">
            <mxPoint x="120" y="2680" as="sourcePoint" />
            <mxPoint x="400" y="2680" as="targetPoint" />
            <mxPoint as="offset" />
          </mxGeometry>
        </mxCell>
        <mxCell id="uZYmgcz1Foe-FGkYyfnS-68" value="Edit Recipient(Role)/Recipient(Login), &lt;br&gt;Theme, Complaint for Selected ID&amp;nbsp;" style="html=1;verticalAlign=bottom;endArrow=block;curved=0;rounded=0;labelBackgroundColor=none;strokeColor=#457B9D;fontColor=default;" edge="1" parent="1">
          <mxGeometry width="80" relative="1" as="geometry">
            <mxPoint x="680" y="2800" as="sourcePoint" />
            <mxPoint x="1520" y="2800" as="targetPoint" />
            <mxPoint as="offset" />
          </mxGeometry>
        </mxCell>
        <mxCell id="uZYmgcz1Foe-FGkYyfnS-69" value="Apply Changes&lt;br&gt;for selected Complaint" style="html=1;verticalAlign=bottom;endArrow=block;curved=0;rounded=0;labelBackgroundColor=none;strokeColor=#457B9D;fontColor=default;" edge="1" parent="1">
          <mxGeometry width="80" relative="1" as="geometry">
            <mxPoint x="1520" y="2840" as="sourcePoint" />
            <mxPoint x="1240" y="2840" as="targetPoint" />
            <mxPoint as="offset" />
          </mxGeometry>
        </mxCell>
        <mxCell id="uZYmgcz1Foe-FGkYyfnS-70" value="Send Transaction Result" style="html=1;verticalAlign=bottom;endArrow=block;curved=0;rounded=0;labelBackgroundColor=none;strokeColor=#457B9D;fontColor=default;" edge="1" parent="1">
          <mxGeometry width="80" relative="1" as="geometry">
            <mxPoint x="1522" y="2880" as="sourcePoint" />
            <mxPoint x="680" y="2880" as="targetPoint" />
            <mxPoint as="offset" />
          </mxGeometry>
        </mxCell>
        <mxCell id="uZYmgcz1Foe-FGkYyfnS-73" value="Send Notification To Task Manager to Update the page for&amp;nbsp;&lt;br&gt;each user that can possibly edit updated complaint&lt;br&gt;(to prevent replies on the old/not actual complaints)" style="html=1;verticalAlign=bottom;endArrow=block;curved=0;rounded=0;labelBackgroundColor=none;strokeColor=#457B9D;fontColor=default;" edge="1" parent="1">
          <mxGeometry width="80" relative="1" as="geometry">
            <mxPoint x="680" y="2980" as="sourcePoint" />
            <mxPoint x="1800" y="2980" as="targetPoint" />
            <mxPoint as="offset" />
          </mxGeometry>
        </mxCell>
        <mxCell id="uZYmgcz1Foe-FGkYyfnS-76" value="" style="endArrow=none;dashed=1;html=1;rounded=0;strokeColor=#457B9D;fontColor=#1D3557;fillColor=#A8DADC;exitX=0;exitY=0.496;exitDx=0;exitDy=0;exitPerimeter=0;entryX=0.999;entryY=0.648;entryDx=0;entryDy=0;entryPerimeter=0;" edge="1" parent="1" target="uZYmgcz1Foe-FGkYyfnS-41">
          <mxGeometry width="50" height="50" relative="1" as="geometry">
            <mxPoint x="70" y="3040" as="sourcePoint" />
            <mxPoint x="450" y="3040" as="targetPoint" />
          </mxGeometry>
        </mxCell>
        <mxCell id="uZYmgcz1Foe-FGkYyfnS-77" value="&#39;Reply&#39; Button Pressed" style="html=1;verticalAlign=bottom;endArrow=block;curved=0;rounded=0;labelBackgroundColor=none;strokeColor=#457B9D;fontColor=default;" edge="1" parent="1">
          <mxGeometry width="80" relative="1" as="geometry">
            <mxPoint x="120" y="3237" as="sourcePoint" />
            <mxPoint x="400" y="3237" as="targetPoint" />
            <mxPoint as="offset" />
          </mxGeometry>
        </mxCell>
        <mxCell id="uZYmgcz1Foe-FGkYyfnS-78" value="Show &#39;Input Field&#39; and &#39;Send&#39; Button&lt;br&gt;&amp;nbsp;Under &#39;Complaint&#39; on&amp;nbsp;&lt;br&gt;&#39;Full Complaint Info&#39;" style="html=1;verticalAlign=bottom;endArrow=block;curved=0;rounded=0;labelBackgroundColor=none;strokeColor=#457B9D;fontColor=default;" edge="1" parent="1">
          <mxGeometry width="80" relative="1" as="geometry">
            <mxPoint x="400" y="3293" as="sourcePoint" />
            <mxPoint x="120" y="3293" as="targetPoint" />
            <mxPoint as="offset" />
          </mxGeometry>
        </mxCell>
        <mxCell id="uZYmgcz1Foe-FGkYyfnS-79" value="Wrote Reply into &#39;Input Filed&#39;" style="html=1;verticalAlign=bottom;endArrow=block;curved=0;rounded=0;labelBackgroundColor=none;strokeColor=#457B9D;fontColor=default;" edge="1" parent="1">
          <mxGeometry width="80" relative="1" as="geometry">
            <mxPoint x="120" y="3333" as="sourcePoint" />
            <mxPoint x="400" y="3333" as="targetPoint" />
            <mxPoint as="offset" />
          </mxGeometry>
        </mxCell>
        <mxCell id="uZYmgcz1Foe-FGkYyfnS-80" value="&#39;Send&#39; Button Pressed" style="html=1;verticalAlign=bottom;endArrow=block;curved=0;rounded=0;labelBackgroundColor=none;strokeColor=#457B9D;fontColor=default;" edge="1" parent="1">
          <mxGeometry width="80" relative="1" as="geometry">
            <mxPoint x="120" y="3373" as="sourcePoint" />
            <mxPoint x="400" y="3373" as="targetPoint" />
            <mxPoint as="offset" />
          </mxGeometry>
        </mxCell>
        <mxCell id="uZYmgcz1Foe-FGkYyfnS-83" value="Send &#39;Reply&#39;, Current User &#39;Login&#39; &lt;br&gt;And Selected Complaint &#39;ID&#39;" style="html=1;verticalAlign=bottom;endArrow=block;curved=0;rounded=0;labelBackgroundColor=none;strokeColor=#457B9D;fontColor=default;" edge="1" parent="1">
          <mxGeometry width="80" relative="1" as="geometry">
            <mxPoint x="400" y="3400" as="sourcePoint" />
            <mxPoint x="680" y="3400" as="targetPoint" />
            <mxPoint as="offset" />
          </mxGeometry>
        </mxCell>
        <mxCell id="uZYmgcz1Foe-FGkYyfnS-84" value="[Reply - Empty]" style="text;html=1;strokeColor=none;fillColor=none;align=center;verticalAlign=middle;whiteSpace=wrap;rounded=0;fontColor=#1D3557;" vertex="1" parent="1">
          <mxGeometry x="120" y="3089" width="120" height="30" as="geometry" />
        </mxCell>
        <mxCell id="uZYmgcz1Foe-FGkYyfnS-88" value="Edit &#39;Reply&#39; and &#39;Recipient(Login)&#39;&lt;br&gt;&amp;nbsp;for&amp;nbsp;Selected Complaint &#39;ID&#39;" style="html=1;verticalAlign=bottom;endArrow=block;curved=0;rounded=0;labelBackgroundColor=none;strokeColor=#457B9D;fontColor=default;" edge="1" parent="1">
          <mxGeometry width="80" relative="1" as="geometry">
            <mxPoint x="680" y="3440" as="sourcePoint" />
            <mxPoint x="1520" y="3440" as="targetPoint" />
            <mxPoint as="offset" />
          </mxGeometry>
        </mxCell>
        <mxCell id="uZYmgcz1Foe-FGkYyfnS-89" value="Apply Changes&lt;br&gt;for selected Complaint" style="html=1;verticalAlign=bottom;endArrow=block;curved=0;rounded=0;labelBackgroundColor=none;strokeColor=#457B9D;fontColor=default;" edge="1" parent="1">
          <mxGeometry width="80" relative="1" as="geometry">
            <mxPoint x="1520" y="3480" as="sourcePoint" />
            <mxPoint x="1240" y="3480" as="targetPoint" />
            <mxPoint as="offset" />
          </mxGeometry>
        </mxCell>
        <mxCell id="uZYmgcz1Foe-FGkYyfnS-90" value="Send Transaction Result" style="html=1;verticalAlign=bottom;endArrow=block;curved=0;rounded=0;labelBackgroundColor=none;strokeColor=#457B9D;fontColor=default;" edge="1" parent="1">
          <mxGeometry width="80" relative="1" as="geometry">
            <mxPoint x="1522" y="3520" as="sourcePoint" />
            <mxPoint x="680" y="3520" as="targetPoint" />
            <mxPoint as="offset" />
          </mxGeometry>
        </mxCell>
        <mxCell id="uZYmgcz1Foe-FGkYyfnS-93" value="Send Notification To Task Manager to Update the page for&amp;nbsp;&lt;br&gt;each user that can possibly Reply to complaint&lt;br&gt;(to prevent multiple replies)" style="html=1;verticalAlign=bottom;endArrow=block;curved=0;rounded=0;labelBackgroundColor=none;strokeColor=#457B9D;fontColor=default;" edge="1" parent="1">
          <mxGeometry width="80" relative="1" as="geometry">
            <mxPoint x="680" y="3600" as="sourcePoint" />
            <mxPoint x="1800" y="3600" as="targetPoint" />
            <mxPoint as="offset" />
          </mxGeometry>
        </mxCell>
        <mxCell id="uZYmgcz1Foe-FGkYyfnS-94" value="" style="endArrow=none;dashed=1;html=1;rounded=0;strokeColor=#457B9D;fontColor=#1D3557;fillColor=#A8DADC;exitX=0;exitY=0.496;exitDx=0;exitDy=0;exitPerimeter=0;" edge="1" parent="1">
          <mxGeometry width="50" height="50" relative="1" as="geometry">
            <mxPoint x="71" y="3639" as="sourcePoint" />
            <mxPoint x="1850" y="3639" as="targetPoint" />
          </mxGeometry>
        </mxCell>
        <mxCell id="uZYmgcz1Foe-FGkYyfnS-95" value="[Reply - &amp;nbsp;Not Empty]" style="text;html=1;strokeColor=none;fillColor=none;align=center;verticalAlign=middle;whiteSpace=wrap;rounded=0;fontColor=#1D3557;" vertex="1" parent="1">
          <mxGeometry x="120" y="3640" width="120" height="30" as="geometry" />
        </mxCell>
        <mxCell id="uZYmgcz1Foe-FGkYyfnS-96" value="Show &#39;Full Complaint info&#39; View With&lt;br&gt;&#39;Complaint Name&#39; (same as lists item description),&lt;br&gt;Content :&amp;nbsp;&#39;Reply Author&#39;, &#39;Complaint&#39;, &#39;Reply&#39;" style="html=1;verticalAlign=bottom;endArrow=block;curved=0;rounded=0;labelBackgroundColor=none;strokeColor=#457B9D;fontColor=default;" edge="1" parent="1">
          <mxGeometry width="80" relative="1" as="geometry">
            <mxPoint x="400" y="3720" as="sourcePoint" />
            <mxPoint x="120" y="3720" as="targetPoint" />
            <mxPoint as="offset" />
          </mxGeometry>
        </mxCell>
        <mxCell id="uZYmgcz1Foe-FGkYyfnS-99" value="Show &#39;Full Complaint info&#39; View With&lt;br&gt;&#39;Complaint Name&#39; (same as lists item description),&lt;br&gt;Content :&amp;nbsp;&#39;Reply Author&#39;, &#39;Complaint&#39;, &#39;Reply&#39;" style="html=1;verticalAlign=bottom;endArrow=block;curved=0;rounded=0;labelBackgroundColor=none;strokeColor=#457B9D;fontColor=default;" edge="1" parent="1">
          <mxGeometry width="80" relative="1" as="geometry">
            <mxPoint x="400" y="3880" as="sourcePoint" />
            <mxPoint x="120" y="3880" as="targetPoint" />
            <mxPoint as="offset" />
          </mxGeometry>
        </mxCell>
        <mxCell id="uZYmgcz1Foe-FGkYyfnS-103" value="[Complaint &#39;Closed Marker&#39; = true]" style="text;html=1;strokeColor=none;fillColor=none;align=center;verticalAlign=middle;whiteSpace=wrap;rounded=0;fontColor=#1D3557;" vertex="1" parent="1">
          <mxGeometry x="76.83" y="3790" width="230" height="30" as="geometry" />
        </mxCell>
        <mxCell id="uZYmgcz1Foe-FGkYyfnS-104" value="" style="endArrow=none;dashed=1;html=1;rounded=0;strokeColor=#457B9D;fontColor=#1D3557;fillColor=#A8DADC;exitX=0;exitY=0.496;exitDx=0;exitDy=0;exitPerimeter=0;entryX=1;entryY=0.939;entryDx=0;entryDy=0;entryPerimeter=0;" edge="1" parent="1" target="uZYmgcz1Foe-FGkYyfnS-101">
          <mxGeometry width="50" height="50" relative="1" as="geometry">
            <mxPoint x="71" y="3780" as="sourcePoint" />
            <mxPoint x="1850" y="3780" as="targetPoint" />
          </mxGeometry>
        </mxCell>
        <mxCell id="uZYmgcz1Foe-FGkYyfnS-107" value="" style="endArrow=none;dashed=1;html=1;rounded=0;strokeColor=#457B9D;fontColor=#1D3557;fillColor=#A8DADC;exitX=0;exitY=0.496;exitDx=0;exitDy=0;exitPerimeter=0;entryX=1.001;entryY=0.922;entryDx=0;entryDy=0;entryPerimeter=0;" edge="1" parent="1">
          <mxGeometry width="50" height="50" relative="1" as="geometry">
            <mxPoint x="71.5" y="3940" as="sourcePoint" />
            <mxPoint x="1961.8899999999999" y="3940.8999999999996" as="targetPoint" />
          </mxGeometry>
        </mxCell>
        <mxCell id="uZYmgcz1Foe-FGkYyfnS-108" value="[Adding New Complaint]" style="text;html=1;strokeColor=none;fillColor=none;align=center;verticalAlign=middle;whiteSpace=wrap;rounded=0;fontColor=#1D3557;" vertex="1" parent="1">
          <mxGeometry x="60" y="3950" width="230" height="30" as="geometry" />
        </mxCell>
        <mxCell id="uZYmgcz1Foe-FGkYyfnS-109" value="&#39;Add Complaint&#39; Button Pressed" style="html=1;verticalAlign=bottom;endArrow=block;curved=0;rounded=0;strokeColor=#457B9D;fontColor=#1D3557;fillColor=#A8DADC;" edge="1" parent="1">
          <mxGeometry width="80" relative="1" as="geometry">
            <mxPoint x="120" y="4000" as="sourcePoint" />
            <mxPoint x="400" y="4000" as="targetPoint" />
          </mxGeometry>
        </mxCell>
        <mxCell id="uZYmgcz1Foe-FGkYyfnS-110" value="Show &#39;Add Complaint&#39; View with Following&amp;nbsp;Items:&lt;br&gt;&amp;nbsp;&#39;Theme&#39;, &#39;Recipient Role/Login&#39; Switch &lt;br&gt;(at Roles by Default), &#39;Recipient Pick&#39; &lt;br&gt;DropDown Menu, &#39;Input Field&#39;, &#39;Send&#39; Button" style="html=1;verticalAlign=bottom;endArrow=block;curved=0;rounded=0;strokeColor=#457B9D;fontColor=#1D3557;fillColor=#A8DADC;" edge="1" parent="1">
          <mxGeometry width="80" relative="1" as="geometry">
            <mxPoint x="400" y="4340" as="sourcePoint" />
            <mxPoint x="120" y="4340" as="targetPoint" />
          </mxGeometry>
        </mxCell>
        <mxCell id="uZYmgcz1Foe-FGkYyfnS-112" value="Send Request for &#39;Roles&#39; and User &#39;Login&#39; Lists" style="html=1;verticalAlign=bottom;endArrow=block;curved=0;rounded=0;strokeColor=#457B9D;fontColor=#1D3557;fillColor=#A8DADC;" edge="1" parent="1">
          <mxGeometry width="80" relative="1" as="geometry">
            <mxPoint x="400" y="4040" as="sourcePoint" />
            <mxPoint x="680" y="4040" as="targetPoint" />
          </mxGeometry>
        </mxCell>
        <mxCell id="uZYmgcz1Foe-FGkYyfnS-113" value="Get &#39;Role&#39; List and &#39;Login&#39; List&amp;nbsp;with specified&lt;br&gt;&amp;nbsp;&#39;Nickname&#39; and &#39;Role&#39;&amp;nbsp;for Current User&lt;br&gt;Department/Departments" style="html=1;verticalAlign=bottom;endArrow=block;curved=0;rounded=0;strokeColor=#457B9D;fontColor=#1D3557;fillColor=#A8DADC;" edge="1" parent="1">
          <mxGeometry width="80" relative="1" as="geometry">
            <mxPoint x="680" y="4080" as="sourcePoint" />
            <mxPoint x="960" y="4080" as="targetPoint" />
          </mxGeometry>
        </mxCell>
        <mxCell id="uZYmgcz1Foe-FGkYyfnS-115" value="Send &#39;Role&#39; and &#39;Login&#39; Lists" style="html=1;verticalAlign=bottom;endArrow=block;curved=0;rounded=0;strokeColor=#457B9D;fontColor=#1D3557;fillColor=#A8DADC;" edge="1" parent="1">
          <mxGeometry width="80" relative="1" as="geometry">
            <mxPoint x="960" y="4240" as="sourcePoint" />
            <mxPoint x="680" y="4240" as="targetPoint" />
            <mxPoint as="offset" />
          </mxGeometry>
        </mxCell>
        <mxCell id="uZYmgcz1Foe-FGkYyfnS-116" value="Send &#39;Role&#39; and &#39;Login&#39; Lists" style="html=1;verticalAlign=bottom;endArrow=block;curved=0;rounded=0;strokeColor=#457B9D;fontColor=#1D3557;fillColor=#A8DADC;" edge="1" parent="1">
          <mxGeometry width="80" relative="1" as="geometry">
            <mxPoint x="680" y="4280" as="sourcePoint" />
            <mxPoint x="400" y="4280" as="targetPoint" />
            <mxPoint as="offset" />
          </mxGeometry>
        </mxCell>
        <mxCell id="uZYmgcz1Foe-FGkYyfnS-117" value="Flips the &#39;Recipient Role/Login&#39; Switch" style="html=1;verticalAlign=bottom;endArrow=block;curved=0;rounded=0;strokeColor=#457B9D;fontColor=#1D3557;fillColor=#A8DADC;" edge="1" parent="1">
          <mxGeometry width="80" relative="1" as="geometry">
            <mxPoint x="120" y="4460" as="sourcePoint" />
            <mxPoint x="400" y="4460" as="targetPoint" />
          </mxGeometry>
        </mxCell>
        <mxCell id="uZYmgcz1Foe-FGkYyfnS-121" value="&#39;Recipient Pick&#39; DropDown Menu Pressed" style="html=1;verticalAlign=bottom;endArrow=block;curved=0;rounded=0;strokeColor=#457B9D;fontColor=#1D3557;fillColor=#A8DADC;" edge="1" parent="1">
          <mxGeometry width="80" relative="1" as="geometry">
            <mxPoint x="120" y="4680" as="sourcePoint" />
            <mxPoint x="400" y="4680" as="targetPoint" />
          </mxGeometry>
        </mxCell>
        <mxCell id="uZYmgcz1Foe-FGkYyfnS-122" value="Show &#39;Recipient Pick&#39; DropDown Menu" style="html=1;verticalAlign=bottom;endArrow=block;curved=0;rounded=0;strokeColor=#457B9D;fontColor=#1D3557;fillColor=#A8DADC;" edge="1" parent="1">
          <mxGeometry width="80" relative="1" as="geometry">
            <mxPoint x="400" y="4720" as="sourcePoint" />
            <mxPoint x="120" y="4720" as="targetPoint" />
          </mxGeometry>
        </mxCell>
        <mxCell id="uZYmgcz1Foe-FGkYyfnS-123" value="One of the items of DropDown Menu Picked" style="html=1;verticalAlign=bottom;endArrow=block;curved=0;rounded=0;strokeColor=#457B9D;fontColor=#1D3557;fillColor=#A8DADC;" edge="1" parent="1">
          <mxGeometry width="80" relative="1" as="geometry">
            <mxPoint x="120" y="4760" as="sourcePoint" />
            <mxPoint x="400" y="4760" as="targetPoint" />
          </mxGeometry>
        </mxCell>
        <mxCell id="uZYmgcz1Foe-FGkYyfnS-124" value="&#39;Theme&#39; Was Entered" style="html=1;verticalAlign=bottom;endArrow=block;curved=0;rounded=0;strokeColor=#457B9D;fontColor=#1D3557;fillColor=#A8DADC;" edge="1" parent="1">
          <mxGeometry width="80" relative="1" as="geometry">
            <mxPoint x="120" y="4800" as="sourcePoint" />
            <mxPoint x="400" y="4800" as="targetPoint" />
          </mxGeometry>
        </mxCell>
        <mxCell id="uZYmgcz1Foe-FGkYyfnS-125" value="Complaint Was Written" style="html=1;verticalAlign=bottom;endArrow=block;curved=0;rounded=0;strokeColor=#457B9D;fontColor=#1D3557;fillColor=#A8DADC;" edge="1" parent="1">
          <mxGeometry width="80" relative="1" as="geometry">
            <mxPoint x="120" y="4840" as="sourcePoint" />
            <mxPoint x="400" y="4840" as="targetPoint" />
          </mxGeometry>
        </mxCell>
        <mxCell id="uZYmgcz1Foe-FGkYyfnS-126" value="&#39;Send&#39; Button Pressed" style="html=1;verticalAlign=bottom;endArrow=block;curved=0;rounded=0;strokeColor=#457B9D;fontColor=#1D3557;fillColor=#A8DADC;" edge="1" parent="1">
          <mxGeometry width="80" relative="1" as="geometry">
            <mxPoint x="120" y="4880" as="sourcePoint" />
            <mxPoint x="400" y="4880" as="targetPoint" />
          </mxGeometry>
        </mxCell>
        <mxCell id="uZYmgcz1Foe-FGkYyfnS-127" value="Send Request to Add Complaint with &lt;br&gt;&#39;Complaint&#39;, &#39;Recipient(Role)&#39;/&#39;Recipient(Login)&#39;,&lt;br&gt;&#39;Theme&#39;" style="html=1;verticalAlign=bottom;endArrow=block;curved=0;rounded=0;strokeColor=#457B9D;fontColor=#1D3557;fillColor=#A8DADC;" edge="1" parent="1">
          <mxGeometry width="80" relative="1" as="geometry">
            <mxPoint x="400" y="4920" as="sourcePoint" />
            <mxPoint x="680" y="4920" as="targetPoint" />
          </mxGeometry>
        </mxCell>
        <mxCell id="uZYmgcz1Foe-FGkYyfnS-128" value="Add Complaint with &#39;Sender(Login)&#39; =&lt;br&gt;= Current User &#39;Login&#39;, &#39;Department&#39; = Current &lt;br&gt;User &#39;Department&#39;,&amp;nbsp;&#39;Complaint&#39;,&lt;br&gt;&amp;nbsp;&#39;Recipient(Role)&#39;/&#39;Recipient(Login)&#39;,&amp;nbsp;&#39;Theme&#39;" style="html=1;verticalAlign=bottom;endArrow=block;curved=0;rounded=0;strokeColor=#457B9D;fontColor=#1D3557;fillColor=#A8DADC;" edge="1" parent="1">
          <mxGeometry width="80" relative="1" as="geometry">
            <mxPoint x="680" y="5001" as="sourcePoint" />
            <mxPoint x="1520" y="5001" as="targetPoint" />
          </mxGeometry>
        </mxCell>
        <mxCell id="uZYmgcz1Foe-FGkYyfnS-129" value="Add Complaint" style="html=1;verticalAlign=bottom;endArrow=block;curved=0;rounded=0;labelBackgroundColor=none;strokeColor=#457B9D;fontColor=default;" edge="1" parent="1">
          <mxGeometry width="80" relative="1" as="geometry">
            <mxPoint x="1519" y="5041" as="sourcePoint" />
            <mxPoint x="1239" y="5041" as="targetPoint" />
            <mxPoint as="offset" />
          </mxGeometry>
        </mxCell>
        <mxCell id="uZYmgcz1Foe-FGkYyfnS-130" value="Send Transaction Result" style="html=1;verticalAlign=bottom;endArrow=block;curved=0;rounded=0;labelBackgroundColor=none;strokeColor=#457B9D;fontColor=default;" edge="1" parent="1">
          <mxGeometry width="80" relative="1" as="geometry">
            <mxPoint x="1521" y="5081" as="sourcePoint" />
            <mxPoint x="679" y="5081" as="targetPoint" />
            <mxPoint as="offset" />
          </mxGeometry>
        </mxCell>
        <mxCell id="uZYmgcz1Foe-FGkYyfnS-134" value="" style="endArrow=none;dashed=1;html=1;dashPattern=1 3;strokeWidth=2;rounded=0;entryX=0.5;entryY=0.5;entryDx=0;entryDy=0;entryPerimeter=0;labelBackgroundColor=none;strokeColor=#457B9D;fontColor=default;" edge="1" parent="1" source="uZYmgcz1Foe-FGkYyfnS-208" target="uZYmgcz1Foe-FGkYyfnS-133">
          <mxGeometry width="50" height="50" relative="1" as="geometry">
            <mxPoint x="120" y="5200" as="sourcePoint" />
            <mxPoint x="120" y="110" as="targetPoint" />
          </mxGeometry>
        </mxCell>
        <mxCell id="uZYmgcz1Foe-FGkYyfnS-133" value="" style="html=1;points=[[0,0,0,0,5],[0,1,0,0,-5],[1,0,0,0,5],[1,1,0,0,-5]];perimeter=orthogonalPerimeter;outlineConnect=0;targetShapes=umlLifeline;portConstraint=eastwest;newEdgeStyle={&quot;curved&quot;:0,&quot;rounded&quot;:0};strokeColor=#457B9D;fontColor=#1D3557;fillColor=#A8DADC;" vertex="1" parent="1">
          <mxGeometry x="115" y="180" width="10" height="20" as="geometry" />
        </mxCell>
        <mxCell id="uZYmgcz1Foe-FGkYyfnS-194" value="" style="html=1;verticalAlign=bottom;endArrow=block;curved=0;rounded=0;labelBackgroundColor=none;strokeColor=#457B9D;fontColor=default;" edge="1" parent="1" target="uZYmgcz1Foe-FGkYyfnS-195">
          <mxGeometry width="80" relative="1" as="geometry">
            <mxPoint x="400" y="240" as="sourcePoint" />
            <mxPoint x="680" y="240" as="targetPoint" />
          </mxGeometry>
        </mxCell>
        <mxCell id="uZYmgcz1Foe-FGkYyfnS-195" value="" style="html=1;points=[[0,0,0,0,5],[0,1,0,0,-5],[1,0,0,0,5],[1,1,0,0,-5]];perimeter=orthogonalPerimeter;outlineConnect=0;targetShapes=umlLifeline;portConstraint=eastwest;newEdgeStyle={&quot;curved&quot;:0,&quot;rounded&quot;:0};strokeColor=#457B9D;fontColor=#1D3557;fillColor=#A8DADC;" vertex="1" parent="1">
          <mxGeometry x="394" y="202" width="10" height="39" as="geometry" />
        </mxCell>
        <mxCell id="uZYmgcz1Foe-FGkYyfnS-197" value="" style="endArrow=none;dashed=1;html=1;dashPattern=1 3;strokeWidth=2;rounded=0;entryX=0.467;entryY=1.014;entryDx=0;entryDy=0;entryPerimeter=0;labelBackgroundColor=none;strokeColor=#457B9D;fontColor=default;" edge="1" parent="1" source="uZYmgcz1Foe-FGkYyfnS-200" target="uZYmgcz1Foe-FGkYyfnS-196">
          <mxGeometry width="50" height="50" relative="1" as="geometry">
            <mxPoint x="681" y="5200" as="sourcePoint" />
            <mxPoint x="678" y="146" as="targetPoint" />
          </mxGeometry>
        </mxCell>
        <mxCell id="uZYmgcz1Foe-FGkYyfnS-196" value="" style="html=1;points=[[0,0,0,0,5],[0,1,0,0,-5],[1,0,0,0,5],[1,1,0,0,-5]];perimeter=orthogonalPerimeter;outlineConnect=0;targetShapes=umlLifeline;portConstraint=eastwest;newEdgeStyle={&quot;curved&quot;:0,&quot;rounded&quot;:0};strokeColor=#457B9D;fontColor=#1D3557;fillColor=#A8DADC;" vertex="1" parent="1">
          <mxGeometry x="675" y="239" width="10" height="40" as="geometry" />
        </mxCell>
        <mxCell id="uZYmgcz1Foe-FGkYyfnS-198" value="" style="html=1;points=[[0,0,0,0,5],[0,1,0,0,-5],[1,0,0,0,5],[1,1,0,0,-5]];perimeter=orthogonalPerimeter;outlineConnect=0;targetShapes=umlLifeline;portConstraint=eastwest;newEdgeStyle={&quot;curved&quot;:0,&quot;rounded&quot;:0};strokeColor=#457B9D;fontColor=#1D3557;fillColor=#A8DADC;" vertex="1" parent="1">
          <mxGeometry x="955" y="303" width="10" height="80" as="geometry" />
        </mxCell>
        <mxCell id="uZYmgcz1Foe-FGkYyfnS-18" value="Form &#39;Department&#39; List and &#39;Role&#39;" style="html=1;verticalAlign=bottom;endArrow=block;curved=0;rounded=0;labelBackgroundColor=none;strokeColor=#457B9D;fontColor=default;" edge="1" parent="1">
          <mxGeometry width="80" relative="1" as="geometry">
            <mxPoint x="960" y="300" as="sourcePoint" />
            <mxPoint x="960" y="390" as="targetPoint" />
            <Array as="points">
              <mxPoint x="1040" y="300" />
              <mxPoint x="1040" y="390" />
            </Array>
          </mxGeometry>
        </mxCell>
        <mxCell id="uZYmgcz1Foe-FGkYyfnS-199" value="" style="endArrow=none;dashed=1;html=1;dashPattern=1 3;strokeWidth=2;rounded=0;entryX=0.467;entryY=1.014;entryDx=0;entryDy=0;entryPerimeter=0;labelBackgroundColor=none;strokeColor=#457B9D;fontColor=default;" edge="1" parent="1" source="uZYmgcz1Foe-FGkYyfnS-204" target="uZYmgcz1Foe-FGkYyfnS-200">
          <mxGeometry width="50" height="50" relative="1" as="geometry">
            <mxPoint x="681" y="5200" as="sourcePoint" />
            <mxPoint x="680" y="280" as="targetPoint" />
          </mxGeometry>
        </mxCell>
        <mxCell id="uZYmgcz1Foe-FGkYyfnS-200" value="" style="html=1;points=[[0,0,0,0,5],[0,1,0,0,-5],[1,0,0,0,5],[1,1,0,0,-5]];perimeter=orthogonalPerimeter;outlineConnect=0;targetShapes=umlLifeline;portConstraint=eastwest;newEdgeStyle={&quot;curved&quot;:0,&quot;rounded&quot;:0};strokeColor=#457B9D;fontColor=#1D3557;fillColor=#A8DADC;" vertex="1" parent="1">
          <mxGeometry x="675" y="417" width="10" height="74" as="geometry" />
        </mxCell>
        <mxCell id="uZYmgcz1Foe-FGkYyfnS-201" value="" style="endArrow=none;dashed=1;html=1;dashPattern=1 3;strokeWidth=2;rounded=0;entryX=0.5;entryY=1;entryDx=0;entryDy=0;labelBackgroundColor=none;strokeColor=#457B9D;fontColor=default;" edge="1" parent="1" source="uZYmgcz1Foe-FGkYyfnS-216" target="uZYmgcz1Foe-FGkYyfnS-202">
          <mxGeometry width="50" height="50" relative="1" as="geometry">
            <mxPoint x="1240" y="5200" as="sourcePoint" />
            <mxPoint x="1240" y="145" as="targetPoint" />
          </mxGeometry>
        </mxCell>
        <mxCell id="uZYmgcz1Foe-FGkYyfnS-202" value="" style="html=1;points=[[0,0,0,0,5],[0,1,0,0,-5],[1,0,0,0,5],[1,1,0,0,-5]];perimeter=orthogonalPerimeter;outlineConnect=0;targetShapes=umlLifeline;portConstraint=eastwest;newEdgeStyle={&quot;curved&quot;:0,&quot;rounded&quot;:0};strokeColor=#457B9D;fontColor=#1D3557;fillColor=#A8DADC;" vertex="1" parent="1">
          <mxGeometry x="1236" y="521" width="10" height="85" as="geometry" />
        </mxCell>
        <mxCell id="uZYmgcz1Foe-FGkYyfnS-203" value="" style="endArrow=none;dashed=1;html=1;dashPattern=1 3;strokeWidth=2;rounded=0;entryX=0.467;entryY=1.014;entryDx=0;entryDy=0;entryPerimeter=0;labelBackgroundColor=none;strokeColor=#457B9D;fontColor=default;" edge="1" parent="1" source="uZYmgcz1Foe-FGkYyfnS-210" target="uZYmgcz1Foe-FGkYyfnS-204">
          <mxGeometry width="50" height="50" relative="1" as="geometry">
            <mxPoint x="681" y="5200" as="sourcePoint" />
            <mxPoint x="680" y="492" as="targetPoint" />
          </mxGeometry>
        </mxCell>
        <mxCell id="uZYmgcz1Foe-FGkYyfnS-204" value="" style="html=1;points=[[0,0,0,0,5],[0,1,0,0,-5],[1,0,0,0,5],[1,1,0,0,-5]];perimeter=orthogonalPerimeter;outlineConnect=0;targetShapes=umlLifeline;portConstraint=eastwest;newEdgeStyle={&quot;curved&quot;:0,&quot;rounded&quot;:0};strokeColor=#457B9D;fontColor=#1D3557;fillColor=#A8DADC;" vertex="1" parent="1">
          <mxGeometry x="673" y="638" width="10" height="42" as="geometry" />
        </mxCell>
        <mxCell id="uZYmgcz1Foe-FGkYyfnS-205" value="" style="html=1;verticalAlign=bottom;endArrow=block;curved=0;rounded=0;labelBackgroundColor=none;strokeColor=#457B9D;fontColor=default;" edge="1" parent="1" target="uZYmgcz1Foe-FGkYyfnS-206">
          <mxGeometry width="80" relative="1" as="geometry">
            <mxPoint x="400" y="720" as="sourcePoint" />
            <mxPoint x="120" y="720" as="targetPoint" />
          </mxGeometry>
        </mxCell>
        <mxCell id="uZYmgcz1Foe-FGkYyfnS-206" value="" style="html=1;points=[[0,0,0,0,5],[0,1,0,0,-5],[1,0,0,0,5],[1,1,0,0,-5]];perimeter=orthogonalPerimeter;outlineConnect=0;targetShapes=umlLifeline;portConstraint=eastwest;newEdgeStyle={&quot;curved&quot;:0,&quot;rounded&quot;:0};strokeColor=#457B9D;fontColor=#1D3557;fillColor=#A8DADC;" vertex="1" parent="1">
          <mxGeometry x="396" y="677" width="10" height="42" as="geometry" />
        </mxCell>
        <mxCell id="uZYmgcz1Foe-FGkYyfnS-207" value="" style="endArrow=none;dashed=1;html=1;dashPattern=1 3;strokeWidth=2;rounded=0;entryX=0.5;entryY=0.5;entryDx=0;entryDy=0;entryPerimeter=0;labelBackgroundColor=none;strokeColor=#457B9D;fontColor=default;" edge="1" parent="1" source="uZYmgcz1Foe-FGkYyfnS-221" target="uZYmgcz1Foe-FGkYyfnS-208">
          <mxGeometry width="50" height="50" relative="1" as="geometry">
            <mxPoint x="120" y="5200" as="sourcePoint" />
            <mxPoint x="120" y="190" as="targetPoint" />
          </mxGeometry>
        </mxCell>
        <mxCell id="uZYmgcz1Foe-FGkYyfnS-208" value="" style="html=1;points=[[0,0,0,0,5],[0,1,0,0,-5],[1,0,0,0,5],[1,1,0,0,-5]];perimeter=orthogonalPerimeter;outlineConnect=0;targetShapes=umlLifeline;portConstraint=eastwest;newEdgeStyle={&quot;curved&quot;:0,&quot;rounded&quot;:0};strokeColor=#457B9D;fontColor=#1D3557;fillColor=#A8DADC;" vertex="1" parent="1">
          <mxGeometry x="115" y="718" width="10" height="119" as="geometry" />
        </mxCell>
        <mxCell id="uZYmgcz1Foe-FGkYyfnS-209" value="" style="html=1;points=[[0,0,0,0,5],[0,1,0,0,-5],[1,0,0,0,5],[1,1,0,0,-5]];perimeter=orthogonalPerimeter;outlineConnect=0;targetShapes=umlLifeline;portConstraint=eastwest;newEdgeStyle={&quot;curved&quot;:0,&quot;rounded&quot;:0};strokeColor=#457B9D;fontColor=#1D3557;fillColor=#A8DADC;" vertex="1" parent="1">
          <mxGeometry x="392" y="841" width="10" height="37" as="geometry" />
        </mxCell>
        <mxCell id="uZYmgcz1Foe-FGkYyfnS-211" value="" style="endArrow=none;dashed=1;html=1;dashPattern=1 3;strokeWidth=2;rounded=0;entryX=0.467;entryY=1.014;entryDx=0;entryDy=0;entryPerimeter=0;labelBackgroundColor=none;strokeColor=#457B9D;fontColor=default;" edge="1" parent="1" source="uZYmgcz1Foe-FGkYyfnS-212" target="uZYmgcz1Foe-FGkYyfnS-210">
          <mxGeometry width="50" height="50" relative="1" as="geometry">
            <mxPoint x="681" y="5200" as="sourcePoint" />
            <mxPoint x="678" y="681" as="targetPoint" />
          </mxGeometry>
        </mxCell>
        <mxCell id="uZYmgcz1Foe-FGkYyfnS-210" value="" style="html=1;points=[[0,0,0,0,5],[0,1,0,0,-5],[1,0,0,0,5],[1,1,0,0,-5]];perimeter=orthogonalPerimeter;outlineConnect=0;targetShapes=umlLifeline;portConstraint=eastwest;newEdgeStyle={&quot;curved&quot;:0,&quot;rounded&quot;:0};strokeColor=#457B9D;fontColor=#1D3557;fillColor=#A8DADC;" vertex="1" parent="1">
          <mxGeometry x="673" y="881" width="10" height="40" as="geometry" />
        </mxCell>
        <mxCell id="uZYmgcz1Foe-FGkYyfnS-213" value="" style="endArrow=none;dashed=1;html=1;dashPattern=1 3;strokeWidth=2;rounded=0;entryX=0.467;entryY=1.014;entryDx=0;entryDy=0;entryPerimeter=0;labelBackgroundColor=none;strokeColor=#457B9D;fontColor=default;" edge="1" parent="1" source="uZYmgcz1Foe-FGkYyfnS-214" target="uZYmgcz1Foe-FGkYyfnS-212">
          <mxGeometry width="50" height="50" relative="1" as="geometry">
            <mxPoint x="681" y="5200" as="sourcePoint" />
            <mxPoint x="678" y="922" as="targetPoint" />
          </mxGeometry>
        </mxCell>
        <mxCell id="uZYmgcz1Foe-FGkYyfnS-212" value="" style="html=1;points=[[0,0,0,0,5],[0,1,0,0,-5],[1,0,0,0,5],[1,1,0,0,-5]];perimeter=orthogonalPerimeter;outlineConnect=0;targetShapes=umlLifeline;portConstraint=eastwest;newEdgeStyle={&quot;curved&quot;:0,&quot;rounded&quot;:0};strokeColor=#457B9D;fontColor=#1D3557;fillColor=#A8DADC;" vertex="1" parent="1">
          <mxGeometry x="673" y="1058" width="10" height="63" as="geometry" />
        </mxCell>
        <mxCell id="uZYmgcz1Foe-FGkYyfnS-215" value="" style="endArrow=none;dashed=1;html=1;dashPattern=1 3;strokeWidth=2;rounded=0;entryX=0.467;entryY=1.014;entryDx=0;entryDy=0;entryPerimeter=0;labelBackgroundColor=none;strokeColor=#457B9D;fontColor=default;" edge="1" parent="1" source="uZYmgcz1Foe-FGkYyfnS-223" target="uZYmgcz1Foe-FGkYyfnS-214">
          <mxGeometry width="50" height="50" relative="1" as="geometry">
            <mxPoint x="681" y="5200" as="sourcePoint" />
            <mxPoint x="678" y="1122" as="targetPoint" />
          </mxGeometry>
        </mxCell>
        <mxCell id="uZYmgcz1Foe-FGkYyfnS-214" value="" style="html=1;points=[[0,0,0,0,5],[0,1,0,0,-5],[1,0,0,0,5],[1,1,0,0,-5]];perimeter=orthogonalPerimeter;outlineConnect=0;targetShapes=umlLifeline;portConstraint=eastwest;newEdgeStyle={&quot;curved&quot;:0,&quot;rounded&quot;:0};strokeColor=#457B9D;fontColor=#1D3557;fillColor=#A8DADC;" vertex="1" parent="1">
          <mxGeometry x="675" y="1267" width="10" height="53" as="geometry" />
        </mxCell>
        <mxCell id="uZYmgcz1Foe-FGkYyfnS-217" value="" style="endArrow=none;dashed=1;html=1;dashPattern=1 3;strokeWidth=2;rounded=0;entryX=0.5;entryY=1;entryDx=0;entryDy=0;labelBackgroundColor=none;strokeColor=#457B9D;fontColor=default;" edge="1" parent="1" source="uZYmgcz1Foe-FGkYyfnS-226" target="uZYmgcz1Foe-FGkYyfnS-216">
          <mxGeometry width="50" height="50" relative="1" as="geometry">
            <mxPoint x="1240" y="5200" as="sourcePoint" />
            <mxPoint x="1241" y="606" as="targetPoint" />
          </mxGeometry>
        </mxCell>
        <mxCell id="uZYmgcz1Foe-FGkYyfnS-216" value="" style="html=1;points=[[0,0,0,0,5],[0,1,0,0,-5],[1,0,0,0,5],[1,1,0,0,-5]];perimeter=orthogonalPerimeter;outlineConnect=0;targetShapes=umlLifeline;portConstraint=eastwest;newEdgeStyle={&quot;curved&quot;:0,&quot;rounded&quot;:0};strokeColor=#457B9D;fontColor=#1D3557;fillColor=#A8DADC;" vertex="1" parent="1">
          <mxGeometry x="1239" y="941" width="10" height="80" as="geometry" />
        </mxCell>
        <mxCell id="uZYmgcz1Foe-FGkYyfnS-27" value="Form &#39;Complaints&#39; List With &#39;ID&#39;,&lt;br&gt;&#39;Sender (Login)&#39;, &#39;Sender (Department)&#39;,&lt;br&gt;&#39;Closed Marker&#39;" style="html=1;verticalAlign=bottom;endArrow=block;curved=0;rounded=0;labelBackgroundColor=none;strokeColor=#457B9D;fontColor=default;" edge="1" parent="1">
          <mxGeometry width="80" relative="1" as="geometry">
            <mxPoint x="1240" y="939" as="sourcePoint" />
            <mxPoint x="1240" y="1029" as="targetPoint" />
            <Array as="points">
              <mxPoint x="1320" y="939" />
              <mxPoint x="1320" y="1029" />
            </Array>
          </mxGeometry>
        </mxCell>
        <mxCell id="uZYmgcz1Foe-FGkYyfnS-218" value="" style="html=1;points=[[0,0,0,0,5],[0,1,0,0,-5],[1,0,0,0,5],[1,1,0,0,-5]];perimeter=orthogonalPerimeter;outlineConnect=0;targetShapes=umlLifeline;portConstraint=eastwest;newEdgeStyle={&quot;curved&quot;:0,&quot;rounded&quot;:0};strokeColor=#457B9D;fontColor=#1D3557;fillColor=#A8DADC;" vertex="1" parent="1">
          <mxGeometry x="957" y="1145" width="10" height="80" as="geometry" />
        </mxCell>
        <mxCell id="uZYmgcz1Foe-FGkYyfnS-219" value="" style="html=1;points=[[0,0,0,0,5],[0,1,0,0,-5],[1,0,0,0,5],[1,1,0,0,-5]];perimeter=orthogonalPerimeter;outlineConnect=0;targetShapes=umlLifeline;portConstraint=eastwest;newEdgeStyle={&quot;curved&quot;:0,&quot;rounded&quot;:0};strokeColor=#457B9D;fontColor=#1D3557;fillColor=#A8DADC;" vertex="1" parent="1">
          <mxGeometry x="396" y="1322" width="10" height="77" as="geometry" />
        </mxCell>
        <mxCell id="uZYmgcz1Foe-FGkYyfnS-220" value="" style="endArrow=none;dashed=1;html=1;dashPattern=1 3;strokeWidth=2;rounded=0;entryX=0.5;entryY=0.5;entryDx=0;entryDy=0;entryPerimeter=0;labelBackgroundColor=none;strokeColor=#457B9D;fontColor=default;" edge="1" parent="1" source="uZYmgcz1Foe-FGkYyfnS-231" target="uZYmgcz1Foe-FGkYyfnS-221">
          <mxGeometry width="50" height="50" relative="1" as="geometry">
            <mxPoint x="120" y="5200" as="sourcePoint" />
            <mxPoint x="120" y="778" as="targetPoint" />
          </mxGeometry>
        </mxCell>
        <mxCell id="uZYmgcz1Foe-FGkYyfnS-221" value="" style="html=1;points=[[0,0,0,0,5],[0,1,0,0,-5],[1,0,0,0,5],[1,1,0,0,-5]];perimeter=orthogonalPerimeter;outlineConnect=0;targetShapes=umlLifeline;portConstraint=eastwest;newEdgeStyle={&quot;curved&quot;:0,&quot;rounded&quot;:0};strokeColor=#457B9D;fontColor=#1D3557;fillColor=#A8DADC;" vertex="1" parent="1">
          <mxGeometry x="115" y="1396" width="10" height="44" as="geometry" />
        </mxCell>
        <mxCell id="uZYmgcz1Foe-FGkYyfnS-222" value="" style="html=1;points=[[0,0,0,0,5],[0,1,0,0,-5],[1,0,0,0,5],[1,1,0,0,-5]];perimeter=orthogonalPerimeter;outlineConnect=0;targetShapes=umlLifeline;portConstraint=eastwest;newEdgeStyle={&quot;curved&quot;:0,&quot;rounded&quot;:0};strokeColor=#457B9D;fontColor=#1D3557;fillColor=#A8DADC;" vertex="1" parent="1">
          <mxGeometry x="396" y="1440" width="10" height="39" as="geometry" />
        </mxCell>
        <mxCell id="uZYmgcz1Foe-FGkYyfnS-224" value="" style="endArrow=none;dashed=1;html=1;dashPattern=1 3;strokeWidth=2;rounded=0;entryX=0.467;entryY=1.014;entryDx=0;entryDy=0;entryPerimeter=0;labelBackgroundColor=none;strokeColor=#457B9D;fontColor=default;" edge="1" parent="1" source="uZYmgcz1Foe-FGkYyfnS-228" target="uZYmgcz1Foe-FGkYyfnS-223">
          <mxGeometry width="50" height="50" relative="1" as="geometry">
            <mxPoint x="681" y="5200" as="sourcePoint" />
            <mxPoint x="680" y="1321" as="targetPoint" />
          </mxGeometry>
        </mxCell>
        <mxCell id="uZYmgcz1Foe-FGkYyfnS-223" value="" style="html=1;points=[[0,0,0,0,5],[0,1,0,0,-5],[1,0,0,0,5],[1,1,0,0,-5]];perimeter=orthogonalPerimeter;outlineConnect=0;targetShapes=umlLifeline;portConstraint=eastwest;newEdgeStyle={&quot;curved&quot;:0,&quot;rounded&quot;:0};strokeColor=#457B9D;fontColor=#1D3557;fillColor=#A8DADC;" vertex="1" parent="1">
          <mxGeometry x="675" y="1479" width="10" height="40" as="geometry" />
        </mxCell>
        <mxCell id="uZYmgcz1Foe-FGkYyfnS-225" value="" style="endArrow=none;dashed=1;html=1;dashPattern=1 3;strokeWidth=2;rounded=0;entryX=0.5;entryY=1;entryDx=0;entryDy=0;labelBackgroundColor=none;strokeColor=#457B9D;fontColor=default;" edge="1" parent="1" source="uZYmgcz1Foe-FGkYyfnS-240" target="uZYmgcz1Foe-FGkYyfnS-226">
          <mxGeometry width="50" height="50" relative="1" as="geometry">
            <mxPoint x="1240" y="5200" as="sourcePoint" />
            <mxPoint x="1244" y="1021" as="targetPoint" />
          </mxGeometry>
        </mxCell>
        <mxCell id="uZYmgcz1Foe-FGkYyfnS-226" value="" style="html=1;points=[[0,0,0,0,5],[0,1,0,0,-5],[1,0,0,0,5],[1,1,0,0,-5]];perimeter=orthogonalPerimeter;outlineConnect=0;targetShapes=umlLifeline;portConstraint=eastwest;newEdgeStyle={&quot;curved&quot;:0,&quot;rounded&quot;:0};strokeColor=#457B9D;fontColor=#1D3557;fillColor=#A8DADC;" vertex="1" parent="1">
          <mxGeometry x="1238" y="1517" width="10" height="42" as="geometry" />
        </mxCell>
        <mxCell id="uZYmgcz1Foe-FGkYyfnS-227" value="" style="endArrow=none;dashed=1;html=1;dashPattern=1 3;strokeWidth=2;rounded=0;entryX=0.467;entryY=1.014;entryDx=0;entryDy=0;entryPerimeter=0;labelBackgroundColor=none;strokeColor=#457B9D;fontColor=default;" edge="1" parent="1" source="uZYmgcz1Foe-FGkYyfnS-236" target="uZYmgcz1Foe-FGkYyfnS-228">
          <mxGeometry width="50" height="50" relative="1" as="geometry">
            <mxPoint x="681" y="5200" as="sourcePoint" />
            <mxPoint x="680" y="1520" as="targetPoint" />
          </mxGeometry>
        </mxCell>
        <mxCell id="uZYmgcz1Foe-FGkYyfnS-228" value="" style="html=1;points=[[0,0,0,0,5],[0,1,0,0,-5],[1,0,0,0,5],[1,1,0,0,-5]];perimeter=orthogonalPerimeter;outlineConnect=0;targetShapes=umlLifeline;portConstraint=eastwest;newEdgeStyle={&quot;curved&quot;:0,&quot;rounded&quot;:0};strokeColor=#457B9D;fontColor=#1D3557;fillColor=#A8DADC;" vertex="1" parent="1">
          <mxGeometry x="675" y="1557" width="10" height="42" as="geometry" />
        </mxCell>
        <mxCell id="uZYmgcz1Foe-FGkYyfnS-229" value="" style="html=1;points=[[0,0,0,0,5],[0,1,0,0,-5],[1,0,0,0,5],[1,1,0,0,-5]];perimeter=orthogonalPerimeter;outlineConnect=0;targetShapes=umlLifeline;portConstraint=eastwest;newEdgeStyle={&quot;curved&quot;:0,&quot;rounded&quot;:0};strokeColor=#457B9D;fontColor=#1D3557;fillColor=#A8DADC;" vertex="1" parent="1">
          <mxGeometry x="396" y="1599" width="10" height="49" as="geometry" />
        </mxCell>
        <mxCell id="uZYmgcz1Foe-FGkYyfnS-230" value="" style="endArrow=none;dashed=1;html=1;dashPattern=1 3;strokeWidth=2;rounded=0;entryX=0.5;entryY=0.5;entryDx=0;entryDy=0;entryPerimeter=0;labelBackgroundColor=none;strokeColor=#457B9D;fontColor=default;" edge="1" parent="1" source="uZYmgcz1Foe-FGkYyfnS-233" target="uZYmgcz1Foe-FGkYyfnS-231">
          <mxGeometry width="50" height="50" relative="1" as="geometry">
            <mxPoint x="120" y="5200" as="sourcePoint" />
            <mxPoint x="120" y="1418" as="targetPoint" />
          </mxGeometry>
        </mxCell>
        <mxCell id="uZYmgcz1Foe-FGkYyfnS-231" value="" style="html=1;points=[[0,0,0,0,5],[0,1,0,0,-5],[1,0,0,0,5],[1,1,0,0,-5]];perimeter=orthogonalPerimeter;outlineConnect=0;targetShapes=umlLifeline;portConstraint=eastwest;newEdgeStyle={&quot;curved&quot;:0,&quot;rounded&quot;:0};strokeColor=#457B9D;fontColor=#1D3557;fillColor=#A8DADC;" vertex="1" parent="1">
          <mxGeometry x="113" y="1902" width="10" height="26" as="geometry" />
        </mxCell>
        <mxCell id="uZYmgcz1Foe-FGkYyfnS-232" value="" style="endArrow=none;dashed=1;html=1;dashPattern=1 3;strokeWidth=2;rounded=0;entryX=0.5;entryY=0.5;entryDx=0;entryDy=0;entryPerimeter=0;labelBackgroundColor=none;strokeColor=#457B9D;fontColor=default;" edge="1" parent="1" source="uZYmgcz1Foe-FGkYyfnS-246" target="uZYmgcz1Foe-FGkYyfnS-233">
          <mxGeometry width="50" height="50" relative="1" as="geometry">
            <mxPoint x="120" y="5200" as="sourcePoint" />
            <mxPoint x="118" y="1915" as="targetPoint" />
          </mxGeometry>
        </mxCell>
        <mxCell id="uZYmgcz1Foe-FGkYyfnS-233" value="" style="html=1;points=[[0,0,0,0,5],[0,1,0,0,-5],[1,0,0,0,5],[1,1,0,0,-5]];perimeter=orthogonalPerimeter;outlineConnect=0;targetShapes=umlLifeline;portConstraint=eastwest;newEdgeStyle={&quot;curved&quot;:0,&quot;rounded&quot;:0};strokeColor=#457B9D;fontColor=#1D3557;fillColor=#A8DADC;" vertex="1" parent="1">
          <mxGeometry x="113" y="2062" width="10" height="32" as="geometry" />
        </mxCell>
        <mxCell id="uZYmgcz1Foe-FGkYyfnS-234" value="" style="html=1;points=[[0,0,0,0,5],[0,1,0,0,-5],[1,0,0,0,5],[1,1,0,0,-5]];perimeter=orthogonalPerimeter;outlineConnect=0;targetShapes=umlLifeline;portConstraint=eastwest;newEdgeStyle={&quot;curved&quot;:0,&quot;rounded&quot;:0};strokeColor=#457B9D;fontColor=#1D3557;fillColor=#A8DADC;" vertex="1" parent="1">
          <mxGeometry x="396" y="2190" width="10" height="42" as="geometry" />
        </mxCell>
        <mxCell id="uZYmgcz1Foe-FGkYyfnS-235" value="" style="endArrow=none;dashed=1;html=1;dashPattern=1 3;strokeWidth=2;rounded=0;entryX=0.467;entryY=1.014;entryDx=0;entryDy=0;entryPerimeter=0;labelBackgroundColor=none;strokeColor=#457B9D;fontColor=default;" edge="1" parent="1" source="uZYmgcz1Foe-FGkYyfnS-242" target="uZYmgcz1Foe-FGkYyfnS-236">
          <mxGeometry width="50" height="50" relative="1" as="geometry">
            <mxPoint x="681" y="5200" as="sourcePoint" />
            <mxPoint x="680" y="1600" as="targetPoint" />
          </mxGeometry>
        </mxCell>
        <mxCell id="uZYmgcz1Foe-FGkYyfnS-236" value="" style="html=1;points=[[0,0,0,0,5],[0,1,0,0,-5],[1,0,0,0,5],[1,1,0,0,-5]];perimeter=orthogonalPerimeter;outlineConnect=0;targetShapes=umlLifeline;portConstraint=eastwest;newEdgeStyle={&quot;curved&quot;:0,&quot;rounded&quot;:0};strokeColor=#457B9D;fontColor=#1D3557;fillColor=#A8DADC;" vertex="1" parent="1">
          <mxGeometry x="672" y="2230" width="10" height="41" as="geometry" />
        </mxCell>
        <mxCell id="uZYmgcz1Foe-FGkYyfnS-238" value="" style="endArrow=none;dashed=1;html=1;dashPattern=1 3;strokeWidth=2;rounded=0;entryX=0.514;entryY=1.025;entryDx=0;entryDy=0;entryPerimeter=0;labelBackgroundColor=none;strokeColor=#457B9D;fontColor=default;" edge="1" parent="1" source="uZYmgcz1Foe-FGkYyfnS-253" target="uZYmgcz1Foe-FGkYyfnS-237">
          <mxGeometry width="50" height="50" relative="1" as="geometry">
            <mxPoint x="1522" y="5200" as="sourcePoint" />
            <mxPoint x="1522" y="152" as="targetPoint" />
          </mxGeometry>
        </mxCell>
        <mxCell id="uZYmgcz1Foe-FGkYyfnS-237" value="" style="html=1;points=[[0,0,0,0,5],[0,1,0,0,-5],[1,0,0,0,5],[1,1,0,0,-5]];perimeter=orthogonalPerimeter;outlineConnect=0;targetShapes=umlLifeline;portConstraint=eastwest;newEdgeStyle={&quot;curved&quot;:0,&quot;rounded&quot;:0};strokeColor=#457B9D;fontColor=#1D3557;fillColor=#A8DADC;" vertex="1" parent="1">
          <mxGeometry x="1519" y="2271" width="10" height="46" as="geometry" />
        </mxCell>
        <mxCell id="uZYmgcz1Foe-FGkYyfnS-239" value="" style="endArrow=none;dashed=1;html=1;dashPattern=1 3;strokeWidth=2;rounded=0;entryX=0.5;entryY=1;entryDx=0;entryDy=0;labelBackgroundColor=none;strokeColor=#457B9D;fontColor=default;" edge="1" parent="1" source="uZYmgcz1Foe-FGkYyfnS-255" target="uZYmgcz1Foe-FGkYyfnS-240">
          <mxGeometry width="50" height="50" relative="1" as="geometry">
            <mxPoint x="1240" y="5200" as="sourcePoint" />
            <mxPoint x="1243" y="1559" as="targetPoint" />
          </mxGeometry>
        </mxCell>
        <mxCell id="uZYmgcz1Foe-FGkYyfnS-240" value="" style="html=1;points=[[0,0,0,0,5],[0,1,0,0,-5],[1,0,0,0,5],[1,1,0,0,-5]];perimeter=orthogonalPerimeter;outlineConnect=0;targetShapes=umlLifeline;portConstraint=eastwest;newEdgeStyle={&quot;curved&quot;:0,&quot;rounded&quot;:0};strokeColor=#457B9D;fontColor=#1D3557;fillColor=#A8DADC;" vertex="1" parent="1">
          <mxGeometry x="1234" y="2317" width="10" height="22" as="geometry" />
        </mxCell>
        <mxCell id="uZYmgcz1Foe-FGkYyfnS-241" value="" style="endArrow=none;dashed=1;html=1;dashPattern=1 3;strokeWidth=2;rounded=0;entryX=0.467;entryY=1.014;entryDx=0;entryDy=0;entryPerimeter=0;labelBackgroundColor=none;strokeColor=#457B9D;fontColor=default;" edge="1" parent="1" source="uZYmgcz1Foe-FGkYyfnS-251" target="uZYmgcz1Foe-FGkYyfnS-242">
          <mxGeometry width="50" height="50" relative="1" as="geometry">
            <mxPoint x="681" y="5200" as="sourcePoint" />
            <mxPoint x="677" y="2272" as="targetPoint" />
          </mxGeometry>
        </mxCell>
        <mxCell id="uZYmgcz1Foe-FGkYyfnS-242" value="" style="html=1;points=[[0,0,0,0,5],[0,1,0,0,-5],[1,0,0,0,5],[1,1,0,0,-5]];perimeter=orthogonalPerimeter;outlineConnect=0;targetShapes=umlLifeline;portConstraint=eastwest;newEdgeStyle={&quot;curved&quot;:0,&quot;rounded&quot;:0};strokeColor=#457B9D;fontColor=#1D3557;fillColor=#A8DADC;" vertex="1" parent="1">
          <mxGeometry x="672" y="2362" width="10" height="85" as="geometry" />
        </mxCell>
        <mxCell id="uZYmgcz1Foe-FGkYyfnS-243" value="" style="html=1;points=[[0,0,0,0,5],[0,1,0,0,-5],[1,0,0,0,5],[1,1,0,0,-5]];perimeter=orthogonalPerimeter;outlineConnect=0;targetShapes=umlLifeline;portConstraint=eastwest;newEdgeStyle={&quot;curved&quot;:0,&quot;rounded&quot;:0};strokeColor=#457B9D;fontColor=#1D3557;fillColor=#A8DADC;" vertex="1" parent="1">
          <mxGeometry x="1795" y="2450" width="10" height="30" as="geometry" />
        </mxCell>
        <mxCell id="uZYmgcz1Foe-FGkYyfnS-244" value="" style="html=1;points=[[0,0,0,0,5],[0,1,0,0,-5],[1,0,0,0,5],[1,1,0,0,-5]];perimeter=orthogonalPerimeter;outlineConnect=0;targetShapes=umlLifeline;portConstraint=eastwest;newEdgeStyle={&quot;curved&quot;:0,&quot;rounded&quot;:0};strokeColor=#457B9D;fontColor=#1D3557;fillColor=#A8DADC;" vertex="1" parent="1">
          <mxGeometry x="394" y="2563" width="10" height="68" as="geometry" />
        </mxCell>
        <mxCell id="uZYmgcz1Foe-FGkYyfnS-245" value="" style="endArrow=none;dashed=1;html=1;dashPattern=1 3;strokeWidth=2;rounded=0;entryX=0.5;entryY=0.5;entryDx=0;entryDy=0;entryPerimeter=0;labelBackgroundColor=none;strokeColor=#457B9D;fontColor=default;" edge="1" parent="1" source="uZYmgcz1Foe-FGkYyfnS-248" target="uZYmgcz1Foe-FGkYyfnS-246">
          <mxGeometry width="50" height="50" relative="1" as="geometry">
            <mxPoint x="120" y="5200" as="sourcePoint" />
            <mxPoint x="118" y="2078" as="targetPoint" />
          </mxGeometry>
        </mxCell>
        <mxCell id="uZYmgcz1Foe-FGkYyfnS-246" value="" style="html=1;points=[[0,0,0,0,5],[0,1,0,0,-5],[1,0,0,0,5],[1,1,0,0,-5]];perimeter=orthogonalPerimeter;outlineConnect=0;targetShapes=umlLifeline;portConstraint=eastwest;newEdgeStyle={&quot;curved&quot;:0,&quot;rounded&quot;:0};strokeColor=#457B9D;fontColor=#1D3557;fillColor=#A8DADC;" vertex="1" parent="1">
          <mxGeometry x="113" y="2630" width="10" height="48" as="geometry" />
        </mxCell>
        <mxCell id="uZYmgcz1Foe-FGkYyfnS-247" value="" style="html=1;points=[[0,0,0,0,5],[0,1,0,0,-5],[1,0,0,0,5],[1,1,0,0,-5]];perimeter=orthogonalPerimeter;outlineConnect=0;targetShapes=umlLifeline;portConstraint=eastwest;newEdgeStyle={&quot;curved&quot;:0,&quot;rounded&quot;:0};strokeColor=#457B9D;fontColor=#1D3557;fillColor=#A8DADC;" vertex="1" parent="1">
          <mxGeometry x="394" y="2678" width="10" height="20" as="geometry" />
        </mxCell>
        <mxCell id="uZYmgcz1Foe-FGkYyfnS-249" value="" style="endArrow=none;dashed=1;html=1;dashPattern=1 3;strokeWidth=2;rounded=0;entryX=0.5;entryY=0.5;entryDx=0;entryDy=0;entryPerimeter=0;labelBackgroundColor=none;strokeColor=#457B9D;fontColor=default;" edge="1" parent="1" source="uZYmgcz1Foe-FGkYyfnS-263" target="uZYmgcz1Foe-FGkYyfnS-248">
          <mxGeometry width="50" height="50" relative="1" as="geometry">
            <mxPoint x="120" y="5200" as="sourcePoint" />
            <mxPoint x="118" y="2654" as="targetPoint" />
          </mxGeometry>
        </mxCell>
        <mxCell id="uZYmgcz1Foe-FGkYyfnS-248" value="" style="html=1;points=[[0,0,0,0,5],[0,1,0,0,-5],[1,0,0,0,5],[1,1,0,0,-5]];perimeter=orthogonalPerimeter;outlineConnect=0;targetShapes=umlLifeline;portConstraint=eastwest;newEdgeStyle={&quot;curved&quot;:0,&quot;rounded&quot;:0};strokeColor=#457B9D;fontColor=#1D3557;fillColor=#A8DADC;" vertex="1" parent="1">
          <mxGeometry x="113" y="2700" width="10" height="20" as="geometry" />
        </mxCell>
        <mxCell id="uZYmgcz1Foe-FGkYyfnS-250" value="" style="html=1;points=[[0,0,0,0,5],[0,1,0,0,-5],[1,0,0,0,5],[1,1,0,0,-5]];perimeter=orthogonalPerimeter;outlineConnect=0;targetShapes=umlLifeline;portConstraint=eastwest;newEdgeStyle={&quot;curved&quot;:0,&quot;rounded&quot;:0};strokeColor=#457B9D;fontColor=#1D3557;fillColor=#A8DADC;" vertex="1" parent="1">
          <mxGeometry x="394" y="2720" width="10" height="38" as="geometry" />
        </mxCell>
        <mxCell id="uZYmgcz1Foe-FGkYyfnS-252" value="" style="endArrow=none;dashed=1;html=1;dashPattern=1 3;strokeWidth=2;rounded=0;entryX=0.467;entryY=1.014;entryDx=0;entryDy=0;entryPerimeter=0;labelBackgroundColor=none;strokeColor=#457B9D;fontColor=default;" edge="1" parent="1" source="uZYmgcz1Foe-FGkYyfnS-258" target="uZYmgcz1Foe-FGkYyfnS-251">
          <mxGeometry width="50" height="50" relative="1" as="geometry">
            <mxPoint x="681" y="5200" as="sourcePoint" />
            <mxPoint x="677" y="2448" as="targetPoint" />
          </mxGeometry>
        </mxCell>
        <mxCell id="uZYmgcz1Foe-FGkYyfnS-251" value="" style="html=1;points=[[0,0,0,0,5],[0,1,0,0,-5],[1,0,0,0,5],[1,1,0,0,-5]];perimeter=orthogonalPerimeter;outlineConnect=0;targetShapes=umlLifeline;portConstraint=eastwest;newEdgeStyle={&quot;curved&quot;:0,&quot;rounded&quot;:0};strokeColor=#457B9D;fontColor=#1D3557;fillColor=#A8DADC;" vertex="1" parent="1">
          <mxGeometry x="672" y="2762" width="10" height="38" as="geometry" />
        </mxCell>
        <mxCell id="uZYmgcz1Foe-FGkYyfnS-254" value="" style="endArrow=none;dashed=1;html=1;dashPattern=1 3;strokeWidth=2;rounded=0;entryX=0.514;entryY=1.025;entryDx=0;entryDy=0;entryPerimeter=0;labelBackgroundColor=none;strokeColor=#457B9D;fontColor=default;" edge="1" parent="1" source="uZYmgcz1Foe-FGkYyfnS-273" target="uZYmgcz1Foe-FGkYyfnS-253">
          <mxGeometry width="50" height="50" relative="1" as="geometry">
            <mxPoint x="1522" y="5200" as="sourcePoint" />
            <mxPoint x="1524" y="2318" as="targetPoint" />
          </mxGeometry>
        </mxCell>
        <mxCell id="uZYmgcz1Foe-FGkYyfnS-253" value="" style="html=1;points=[[0,0,0,0,5],[0,1,0,0,-5],[1,0,0,0,5],[1,1,0,0,-5]];perimeter=orthogonalPerimeter;outlineConnect=0;targetShapes=umlLifeline;portConstraint=eastwest;newEdgeStyle={&quot;curved&quot;:0,&quot;rounded&quot;:0};strokeColor=#457B9D;fontColor=#1D3557;fillColor=#A8DADC;" vertex="1" parent="1">
          <mxGeometry x="1521" y="2800" width="10" height="38" as="geometry" />
        </mxCell>
        <mxCell id="uZYmgcz1Foe-FGkYyfnS-257" value="" style="endArrow=none;dashed=1;html=1;dashPattern=1 3;strokeWidth=2;rounded=0;entryX=0.5;entryY=1;entryDx=0;entryDy=0;labelBackgroundColor=none;strokeColor=#457B9D;fontColor=default;" edge="1" parent="1" source="uZYmgcz1Foe-FGkYyfnS-275" target="uZYmgcz1Foe-FGkYyfnS-255">
          <mxGeometry width="50" height="50" relative="1" as="geometry">
            <mxPoint x="1240" y="5200" as="sourcePoint" />
            <mxPoint x="1239" y="2339" as="targetPoint" />
          </mxGeometry>
        </mxCell>
        <mxCell id="uZYmgcz1Foe-FGkYyfnS-255" value="" style="html=1;points=[[0,0,0,0,5],[0,1,0,0,-5],[1,0,0,0,5],[1,1,0,0,-5]];perimeter=orthogonalPerimeter;outlineConnect=0;targetShapes=umlLifeline;portConstraint=eastwest;newEdgeStyle={&quot;curved&quot;:0,&quot;rounded&quot;:0};strokeColor=#457B9D;fontColor=#1D3557;fillColor=#A8DADC;" vertex="1" parent="1">
          <mxGeometry x="1236" y="2836" width="10" height="25" as="geometry" />
        </mxCell>
        <mxCell id="uZYmgcz1Foe-FGkYyfnS-259" value="" style="endArrow=none;dashed=1;html=1;dashPattern=1 3;strokeWidth=2;rounded=0;entryX=0.467;entryY=1.014;entryDx=0;entryDy=0;entryPerimeter=0;labelBackgroundColor=none;strokeColor=#457B9D;fontColor=default;" edge="1" parent="1" source="uZYmgcz1Foe-FGkYyfnS-277" target="uZYmgcz1Foe-FGkYyfnS-258">
          <mxGeometry width="50" height="50" relative="1" as="geometry">
            <mxPoint x="681" y="5200" as="sourcePoint" />
            <mxPoint x="677" y="2801" as="targetPoint" />
          </mxGeometry>
        </mxCell>
        <mxCell id="uZYmgcz1Foe-FGkYyfnS-258" value="" style="html=1;points=[[0,0,0,0,5],[0,1,0,0,-5],[1,0,0,0,5],[1,1,0,0,-5]];perimeter=orthogonalPerimeter;outlineConnect=0;targetShapes=umlLifeline;portConstraint=eastwest;newEdgeStyle={&quot;curved&quot;:0,&quot;rounded&quot;:0};strokeColor=#457B9D;fontColor=#1D3557;fillColor=#A8DADC;" vertex="1" parent="1">
          <mxGeometry x="673" y="2879" width="10" height="102" as="geometry" />
        </mxCell>
        <mxCell id="uZYmgcz1Foe-FGkYyfnS-262" value="" style="endArrow=none;dashed=1;html=1;dashPattern=1 3;strokeWidth=2;rounded=0;entryX=0.5;entryY=1;entryDx=0;entryDy=0;labelBackgroundColor=none;strokeColor=#457B9D;fontColor=default;" edge="1" parent="1" source="uZYmgcz1Foe-FGkYyfnS-279" target="uZYmgcz1Foe-FGkYyfnS-260">
          <mxGeometry width="50" height="50" relative="1" as="geometry">
            <mxPoint x="1800" y="5200" as="sourcePoint" />
            <mxPoint x="1800" y="140" as="targetPoint" />
          </mxGeometry>
        </mxCell>
        <mxCell id="uZYmgcz1Foe-FGkYyfnS-260" value="" style="html=1;points=[[0,0,0,0,5],[0,1,0,0,-5],[1,0,0,0,5],[1,1,0,0,-5]];perimeter=orthogonalPerimeter;outlineConnect=0;targetShapes=umlLifeline;portConstraint=eastwest;newEdgeStyle={&quot;curved&quot;:0,&quot;rounded&quot;:0};strokeColor=#457B9D;fontColor=#1D3557;fillColor=#A8DADC;" vertex="1" parent="1">
          <mxGeometry x="1793" y="2982" width="10" height="38" as="geometry" />
        </mxCell>
        <mxCell id="uZYmgcz1Foe-FGkYyfnS-264" value="" style="endArrow=none;dashed=1;html=1;dashPattern=1 3;strokeWidth=2;rounded=0;entryX=0.5;entryY=0.5;entryDx=0;entryDy=0;entryPerimeter=0;labelBackgroundColor=none;strokeColor=#457B9D;fontColor=default;" edge="1" parent="1" source="uZYmgcz1Foe-FGkYyfnS-267" target="uZYmgcz1Foe-FGkYyfnS-263">
          <mxGeometry width="50" height="50" relative="1" as="geometry">
            <mxPoint x="120" y="5200" as="sourcePoint" />
            <mxPoint x="118" y="2710" as="targetPoint" />
          </mxGeometry>
        </mxCell>
        <mxCell id="uZYmgcz1Foe-FGkYyfnS-263" value="" style="html=1;points=[[0,0,0,0,5],[0,1,0,0,-5],[1,0,0,0,5],[1,1,0,0,-5]];perimeter=orthogonalPerimeter;outlineConnect=0;targetShapes=umlLifeline;portConstraint=eastwest;newEdgeStyle={&quot;curved&quot;:0,&quot;rounded&quot;:0};strokeColor=#457B9D;fontColor=#1D3557;fillColor=#A8DADC;" vertex="1" parent="1">
          <mxGeometry x="115" y="3165" width="10" height="22" as="geometry" />
        </mxCell>
        <mxCell id="uZYmgcz1Foe-FGkYyfnS-265" value="" style="html=1;points=[[0,0,0,0,5],[0,1,0,0,-5],[1,0,0,0,5],[1,1,0,0,-5]];perimeter=orthogonalPerimeter;outlineConnect=0;targetShapes=umlLifeline;portConstraint=eastwest;newEdgeStyle={&quot;curved&quot;:0,&quot;rounded&quot;:0};strokeColor=#457B9D;fontColor=#1D3557;fillColor=#A8DADC;" vertex="1" parent="1">
          <mxGeometry x="394" y="3240" width="10" height="52" as="geometry" />
        </mxCell>
        <mxCell id="uZYmgcz1Foe-FGkYyfnS-266" value="" style="endArrow=none;dashed=1;html=1;dashPattern=1 3;strokeWidth=2;rounded=0;entryX=0.5;entryY=0.5;entryDx=0;entryDy=0;entryPerimeter=0;labelBackgroundColor=none;strokeColor=#457B9D;fontColor=default;" edge="1" parent="1" source="uZYmgcz1Foe-FGkYyfnS-269" target="uZYmgcz1Foe-FGkYyfnS-267">
          <mxGeometry width="50" height="50" relative="1" as="geometry">
            <mxPoint x="120" y="5200" as="sourcePoint" />
            <mxPoint x="120" y="3176" as="targetPoint" />
          </mxGeometry>
        </mxCell>
        <mxCell id="uZYmgcz1Foe-FGkYyfnS-267" value="" style="html=1;points=[[0,0,0,0,5],[0,1,0,0,-5],[1,0,0,0,5],[1,1,0,0,-5]];perimeter=orthogonalPerimeter;outlineConnect=0;targetShapes=umlLifeline;portConstraint=eastwest;newEdgeStyle={&quot;curved&quot;:0,&quot;rounded&quot;:0};strokeColor=#457B9D;fontColor=#1D3557;fillColor=#A8DADC;" vertex="1" parent="1">
          <mxGeometry x="113" y="3290" width="10" height="44" as="geometry" />
        </mxCell>
        <mxCell id="uZYmgcz1Foe-FGkYyfnS-268" value="" style="html=1;points=[[0,0,0,0,5],[0,1,0,0,-5],[1,0,0,0,5],[1,1,0,0,-5]];perimeter=orthogonalPerimeter;outlineConnect=0;targetShapes=umlLifeline;portConstraint=eastwest;newEdgeStyle={&quot;curved&quot;:0,&quot;rounded&quot;:0};strokeColor=#457B9D;fontColor=#1D3557;fillColor=#A8DADC;" vertex="1" parent="1">
          <mxGeometry x="394" y="3334" width="10" height="17" as="geometry" />
        </mxCell>
        <mxCell id="uZYmgcz1Foe-FGkYyfnS-270" value="" style="endArrow=none;dashed=1;html=1;dashPattern=1 3;strokeWidth=2;rounded=0;entryX=0.5;entryY=0.5;entryDx=0;entryDy=0;entryPerimeter=0;labelBackgroundColor=none;strokeColor=#457B9D;fontColor=default;" edge="1" parent="1" source="uZYmgcz1Foe-FGkYyfnS-281" target="uZYmgcz1Foe-FGkYyfnS-269">
          <mxGeometry width="50" height="50" relative="1" as="geometry">
            <mxPoint x="120" y="5200" as="sourcePoint" />
            <mxPoint x="118" y="3312" as="targetPoint" />
          </mxGeometry>
        </mxCell>
        <mxCell id="uZYmgcz1Foe-FGkYyfnS-269" value="" style="html=1;points=[[0,0,0,0,5],[0,1,0,0,-5],[1,0,0,0,5],[1,1,0,0,-5]];perimeter=orthogonalPerimeter;outlineConnect=0;targetShapes=umlLifeline;portConstraint=eastwest;newEdgeStyle={&quot;curved&quot;:0,&quot;rounded&quot;:0};strokeColor=#457B9D;fontColor=#1D3557;fillColor=#A8DADC;" vertex="1" parent="1">
          <mxGeometry x="113" y="3358" width="10" height="17" as="geometry" />
        </mxCell>
        <mxCell id="uZYmgcz1Foe-FGkYyfnS-271" value="" style="html=1;points=[[0,0,0,0,5],[0,1,0,0,-5],[1,0,0,0,5],[1,1,0,0,-5]];perimeter=orthogonalPerimeter;outlineConnect=0;targetShapes=umlLifeline;portConstraint=eastwest;newEdgeStyle={&quot;curved&quot;:0,&quot;rounded&quot;:0};strokeColor=#457B9D;fontColor=#1D3557;fillColor=#A8DADC;" vertex="1" parent="1">
          <mxGeometry x="394" y="3378" width="10" height="19" as="geometry" />
        </mxCell>
        <mxCell id="uZYmgcz1Foe-FGkYyfnS-272" value="" style="html=1;points=[[0,0,0,0,5],[0,1,0,0,-5],[1,0,0,0,5],[1,1,0,0,-5]];perimeter=orthogonalPerimeter;outlineConnect=0;targetShapes=umlLifeline;portConstraint=eastwest;newEdgeStyle={&quot;curved&quot;:0,&quot;rounded&quot;:0};strokeColor=#457B9D;fontColor=#1D3557;fillColor=#A8DADC;" vertex="1" parent="1">
          <mxGeometry x="673" y="3402" width="10" height="36" as="geometry" />
        </mxCell>
        <mxCell id="uZYmgcz1Foe-FGkYyfnS-274" value="" style="endArrow=none;dashed=1;html=1;dashPattern=1 3;strokeWidth=2;rounded=0;entryX=0.514;entryY=1.025;entryDx=0;entryDy=0;entryPerimeter=0;labelBackgroundColor=none;strokeColor=#457B9D;fontColor=default;" edge="1" parent="1" source="uZYmgcz1Foe-FGkYyfnS-311" target="uZYmgcz1Foe-FGkYyfnS-273">
          <mxGeometry width="50" height="50" relative="1" as="geometry">
            <mxPoint x="1522" y="5200" as="sourcePoint" />
            <mxPoint x="1526" y="2839" as="targetPoint" />
          </mxGeometry>
        </mxCell>
        <mxCell id="uZYmgcz1Foe-FGkYyfnS-273" value="" style="html=1;points=[[0,0,0,0,5],[0,1,0,0,-5],[1,0,0,0,5],[1,1,0,0,-5]];perimeter=orthogonalPerimeter;outlineConnect=0;targetShapes=umlLifeline;portConstraint=eastwest;newEdgeStyle={&quot;curved&quot;:0,&quot;rounded&quot;:0};strokeColor=#457B9D;fontColor=#1D3557;fillColor=#A8DADC;" vertex="1" parent="1">
          <mxGeometry x="1519" y="3442" width="10" height="36" as="geometry" />
        </mxCell>
        <mxCell id="uZYmgcz1Foe-FGkYyfnS-276" value="" style="endArrow=none;dashed=1;html=1;dashPattern=1 3;strokeWidth=2;rounded=0;entryX=0.5;entryY=1;entryDx=0;entryDy=0;labelBackgroundColor=none;strokeColor=#457B9D;fontColor=default;" edge="1" parent="1" source="uZYmgcz1Foe-FGkYyfnS-313" target="uZYmgcz1Foe-FGkYyfnS-275">
          <mxGeometry width="50" height="50" relative="1" as="geometry">
            <mxPoint x="1240" y="5200" as="sourcePoint" />
            <mxPoint x="1241" y="2861" as="targetPoint" />
          </mxGeometry>
        </mxCell>
        <mxCell id="uZYmgcz1Foe-FGkYyfnS-275" value="" style="html=1;points=[[0,0,0,0,5],[0,1,0,0,-5],[1,0,0,0,5],[1,1,0,0,-5]];perimeter=orthogonalPerimeter;outlineConnect=0;targetShapes=umlLifeline;portConstraint=eastwest;newEdgeStyle={&quot;curved&quot;:0,&quot;rounded&quot;:0};strokeColor=#457B9D;fontColor=#1D3557;fillColor=#A8DADC;" vertex="1" parent="1">
          <mxGeometry x="1236" y="3478" width="10" height="36" as="geometry" />
        </mxCell>
        <mxCell id="uZYmgcz1Foe-FGkYyfnS-278" value="" style="endArrow=none;dashed=1;html=1;dashPattern=1 3;strokeWidth=2;rounded=0;entryX=0.467;entryY=1.014;entryDx=0;entryDy=0;entryPerimeter=0;labelBackgroundColor=none;strokeColor=#457B9D;fontColor=default;" edge="1" parent="1" source="uZYmgcz1Foe-FGkYyfnS-287" target="uZYmgcz1Foe-FGkYyfnS-277">
          <mxGeometry width="50" height="50" relative="1" as="geometry">
            <mxPoint x="681" y="5200" as="sourcePoint" />
            <mxPoint x="678" y="2982" as="targetPoint" />
          </mxGeometry>
        </mxCell>
        <mxCell id="uZYmgcz1Foe-FGkYyfnS-277" value="" style="html=1;points=[[0,0,0,0,5],[0,1,0,0,-5],[1,0,0,0,5],[1,1,0,0,-5]];perimeter=orthogonalPerimeter;outlineConnect=0;targetShapes=umlLifeline;portConstraint=eastwest;newEdgeStyle={&quot;curved&quot;:0,&quot;rounded&quot;:0};strokeColor=#457B9D;fontColor=#1D3557;fillColor=#A8DADC;" vertex="1" parent="1">
          <mxGeometry x="673" y="3519" width="10" height="77" as="geometry" />
        </mxCell>
        <mxCell id="uZYmgcz1Foe-FGkYyfnS-280" value="" style="endArrow=none;dashed=1;html=1;dashPattern=1 3;strokeWidth=2;rounded=0;entryX=0.5;entryY=1;entryDx=0;entryDy=0;labelBackgroundColor=none;strokeColor=#457B9D;fontColor=default;" edge="1" parent="1" target="uZYmgcz1Foe-FGkYyfnS-279">
          <mxGeometry width="50" height="50" relative="1" as="geometry">
            <mxPoint x="1800" y="5200" as="sourcePoint" />
            <mxPoint x="1798" y="3020" as="targetPoint" />
          </mxGeometry>
        </mxCell>
        <mxCell id="uZYmgcz1Foe-FGkYyfnS-279" value="" style="html=1;points=[[0,0,0,0,5],[0,1,0,0,-5],[1,0,0,0,5],[1,1,0,0,-5]];perimeter=orthogonalPerimeter;outlineConnect=0;targetShapes=umlLifeline;portConstraint=eastwest;newEdgeStyle={&quot;curved&quot;:0,&quot;rounded&quot;:0};strokeColor=#457B9D;fontColor=#1D3557;fillColor=#A8DADC;" vertex="1" parent="1">
          <mxGeometry x="1793" y="3602" width="10" height="18" as="geometry" />
        </mxCell>
        <mxCell id="uZYmgcz1Foe-FGkYyfnS-282" value="" style="endArrow=none;dashed=1;html=1;dashPattern=1 3;strokeWidth=2;rounded=0;entryX=0.5;entryY=0.5;entryDx=0;entryDy=0;entryPerimeter=0;labelBackgroundColor=none;strokeColor=#457B9D;fontColor=default;" edge="1" parent="1" source="uZYmgcz1Foe-FGkYyfnS-283" target="uZYmgcz1Foe-FGkYyfnS-281">
          <mxGeometry width="50" height="50" relative="1" as="geometry">
            <mxPoint x="120" y="5200" as="sourcePoint" />
            <mxPoint x="118" y="3367" as="targetPoint" />
          </mxGeometry>
        </mxCell>
        <mxCell id="uZYmgcz1Foe-FGkYyfnS-281" value="" style="html=1;points=[[0,0,0,0,5],[0,1,0,0,-5],[1,0,0,0,5],[1,1,0,0,-5]];perimeter=orthogonalPerimeter;outlineConnect=0;targetShapes=umlLifeline;portConstraint=eastwest;newEdgeStyle={&quot;curved&quot;:0,&quot;rounded&quot;:0};strokeColor=#457B9D;fontColor=#1D3557;fillColor=#A8DADC;" vertex="1" parent="1">
          <mxGeometry x="115" y="3719" width="10" height="38" as="geometry" />
        </mxCell>
        <mxCell id="uZYmgcz1Foe-FGkYyfnS-285" value="" style="endArrow=none;dashed=1;html=1;dashPattern=1 3;strokeWidth=2;rounded=0;entryX=0.5;entryY=0.5;entryDx=0;entryDy=0;entryPerimeter=0;labelBackgroundColor=none;strokeColor=#457B9D;fontColor=default;" edge="1" parent="1" source="uZYmgcz1Foe-FGkYyfnS-294" target="uZYmgcz1Foe-FGkYyfnS-283">
          <mxGeometry width="50" height="50" relative="1" as="geometry">
            <mxPoint x="120" y="5200" as="sourcePoint" />
            <mxPoint x="120" y="3738" as="targetPoint" />
          </mxGeometry>
        </mxCell>
        <mxCell id="uZYmgcz1Foe-FGkYyfnS-283" value="" style="html=1;points=[[0,0,0,0,5],[0,1,0,0,-5],[1,0,0,0,5],[1,1,0,0,-5]];perimeter=orthogonalPerimeter;outlineConnect=0;targetShapes=umlLifeline;portConstraint=eastwest;newEdgeStyle={&quot;curved&quot;:0,&quot;rounded&quot;:0};strokeColor=#457B9D;fontColor=#1D3557;fillColor=#A8DADC;" vertex="1" parent="1">
          <mxGeometry x="115" y="3880" width="10" height="38" as="geometry" />
        </mxCell>
        <mxCell id="uZYmgcz1Foe-FGkYyfnS-286" value="" style="html=1;points=[[0,0,0,0,5],[0,1,0,0,-5],[1,0,0,0,5],[1,1,0,0,-5]];perimeter=orthogonalPerimeter;outlineConnect=0;targetShapes=umlLifeline;portConstraint=eastwest;newEdgeStyle={&quot;curved&quot;:0,&quot;rounded&quot;:0};strokeColor=#457B9D;fontColor=#1D3557;fillColor=#A8DADC;" vertex="1" parent="1">
          <mxGeometry x="394" y="3999" width="10" height="40" as="geometry" />
        </mxCell>
        <mxCell id="uZYmgcz1Foe-FGkYyfnS-288" value="" style="endArrow=none;dashed=1;html=1;dashPattern=1 3;strokeWidth=2;rounded=0;entryX=0.467;entryY=1.014;entryDx=0;entryDy=0;entryPerimeter=0;labelBackgroundColor=none;strokeColor=#457B9D;fontColor=default;" edge="1" parent="1" source="uZYmgcz1Foe-FGkYyfnS-290" target="uZYmgcz1Foe-FGkYyfnS-287">
          <mxGeometry width="50" height="50" relative="1" as="geometry">
            <mxPoint x="681" y="5200" as="sourcePoint" />
            <mxPoint x="678" y="3597" as="targetPoint" />
          </mxGeometry>
        </mxCell>
        <mxCell id="uZYmgcz1Foe-FGkYyfnS-287" value="" style="html=1;points=[[0,0,0,0,5],[0,1,0,0,-5],[1,0,0,0,5],[1,1,0,0,-5]];perimeter=orthogonalPerimeter;outlineConnect=0;targetShapes=umlLifeline;portConstraint=eastwest;newEdgeStyle={&quot;curved&quot;:0,&quot;rounded&quot;:0};strokeColor=#457B9D;fontColor=#1D3557;fillColor=#A8DADC;" vertex="1" parent="1">
          <mxGeometry x="675" y="4041" width="10" height="40" as="geometry" />
        </mxCell>
        <mxCell id="uZYmgcz1Foe-FGkYyfnS-289" value="" style="html=1;points=[[0,0,0,0,5],[0,1,0,0,-5],[1,0,0,0,5],[1,1,0,0,-5]];perimeter=orthogonalPerimeter;outlineConnect=0;targetShapes=umlLifeline;portConstraint=eastwest;newEdgeStyle={&quot;curved&quot;:0,&quot;rounded&quot;:0};strokeColor=#457B9D;fontColor=#1D3557;fillColor=#A8DADC;" vertex="1" parent="1">
          <mxGeometry x="955" y="4100" width="10" height="96" as="geometry" />
        </mxCell>
        <mxCell id="uZYmgcz1Foe-FGkYyfnS-114" value="Form &#39;Role&#39; List and &#39;Login&#39; List with &lt;br&gt;specified &#39;Nickname&#39; and &#39;Role&#39;" style="html=1;verticalAlign=bottom;endArrow=block;curved=0;rounded=0;strokeColor=#457B9D;fontColor=#1D3557;fillColor=#A8DADC;" edge="1" parent="1">
          <mxGeometry x="0.0769" width="80" relative="1" as="geometry">
            <mxPoint x="960" y="4100" as="sourcePoint" />
            <mxPoint x="960" y="4200" as="targetPoint" />
            <Array as="points">
              <mxPoint x="1040" y="4100" />
              <mxPoint x="1040" y="4200" />
            </Array>
            <mxPoint as="offset" />
          </mxGeometry>
        </mxCell>
        <mxCell id="uZYmgcz1Foe-FGkYyfnS-291" value="" style="endArrow=none;dashed=1;html=1;dashPattern=1 3;strokeWidth=2;rounded=0;entryX=0.467;entryY=1.014;entryDx=0;entryDy=0;entryPerimeter=0;labelBackgroundColor=none;strokeColor=#457B9D;fontColor=default;" edge="1" parent="1" source="uZYmgcz1Foe-FGkYyfnS-309" target="uZYmgcz1Foe-FGkYyfnS-290">
          <mxGeometry width="50" height="50" relative="1" as="geometry">
            <mxPoint x="681" y="5200" as="sourcePoint" />
            <mxPoint x="680" y="4082" as="targetPoint" />
          </mxGeometry>
        </mxCell>
        <mxCell id="uZYmgcz1Foe-FGkYyfnS-290" value="" style="html=1;points=[[0,0,0,0,5],[0,1,0,0,-5],[1,0,0,0,5],[1,1,0,0,-5]];perimeter=orthogonalPerimeter;outlineConnect=0;targetShapes=umlLifeline;portConstraint=eastwest;newEdgeStyle={&quot;curved&quot;:0,&quot;rounded&quot;:0};strokeColor=#457B9D;fontColor=#1D3557;fillColor=#A8DADC;" vertex="1" parent="1">
          <mxGeometry x="675" y="4241" width="10" height="37" as="geometry" />
        </mxCell>
        <mxCell id="uZYmgcz1Foe-FGkYyfnS-292" value="" style="html=1;points=[[0,0,0,0,5],[0,1,0,0,-5],[1,0,0,0,5],[1,1,0,0,-5]];perimeter=orthogonalPerimeter;outlineConnect=0;targetShapes=umlLifeline;portConstraint=eastwest;newEdgeStyle={&quot;curved&quot;:0,&quot;rounded&quot;:0};strokeColor=#457B9D;fontColor=#1D3557;fillColor=#A8DADC;" vertex="1" parent="1">
          <mxGeometry x="394" y="4281" width="10" height="55" as="geometry" />
        </mxCell>
        <mxCell id="uZYmgcz1Foe-FGkYyfnS-293" value="" style="endArrow=none;dashed=1;html=1;dashPattern=1 3;strokeWidth=2;rounded=0;entryX=0.5;entryY=0.5;entryDx=0;entryDy=0;entryPerimeter=0;labelBackgroundColor=none;strokeColor=#457B9D;fontColor=default;" edge="1" parent="1" source="uZYmgcz1Foe-FGkYyfnS-297" target="uZYmgcz1Foe-FGkYyfnS-294">
          <mxGeometry width="50" height="50" relative="1" as="geometry">
            <mxPoint x="120" y="5200" as="sourcePoint" />
            <mxPoint x="120" y="3899" as="targetPoint" />
          </mxGeometry>
        </mxCell>
        <mxCell id="uZYmgcz1Foe-FGkYyfnS-294" value="" style="html=1;points=[[0,0,0,0,5],[0,1,0,0,-5],[1,0,0,0,5],[1,1,0,0,-5]];perimeter=orthogonalPerimeter;outlineConnect=0;targetShapes=umlLifeline;portConstraint=eastwest;newEdgeStyle={&quot;curved&quot;:0,&quot;rounded&quot;:0};strokeColor=#457B9D;fontColor=#1D3557;fillColor=#A8DADC;" vertex="1" parent="1">
          <mxGeometry x="115" y="4340" width="10" height="119" as="geometry" />
        </mxCell>
        <mxCell id="uZYmgcz1Foe-FGkYyfnS-295" value="" style="html=1;points=[[0,0,0,0,5],[0,1,0,0,-5],[1,0,0,0,5],[1,1,0,0,-5]];perimeter=orthogonalPerimeter;outlineConnect=0;targetShapes=umlLifeline;portConstraint=eastwest;newEdgeStyle={&quot;curved&quot;:0,&quot;rounded&quot;:0};strokeColor=#457B9D;fontColor=#1D3557;fillColor=#A8DADC;" vertex="1" parent="1">
          <mxGeometry x="396" y="4482" width="10" height="77" as="geometry" />
        </mxCell>
        <mxCell id="uZYmgcz1Foe-FGkYyfnS-120" value="Update &#39;Recipient Pick&#39; DropDown Menu&lt;br&gt;Content (change to &#39;Role&#39; list if it was &lt;br&gt;&#39;Login&#39; list and vise versa)" style="html=1;verticalAlign=bottom;endArrow=block;curved=0;rounded=0;strokeColor=#457B9D;fontColor=#1D3557;fillColor=#A8DADC;" edge="1" parent="1">
          <mxGeometry x="0.1667" width="80" relative="1" as="geometry">
            <mxPoint x="400" y="4480" as="sourcePoint" />
            <mxPoint x="400" y="4560" as="targetPoint" />
            <Array as="points">
              <mxPoint x="480" y="4480" />
              <mxPoint x="480" y="4560" />
            </Array>
            <mxPoint as="offset" />
          </mxGeometry>
        </mxCell>
        <mxCell id="uZYmgcz1Foe-FGkYyfnS-296" value="" style="html=1;points=[[0,0,0,0,5],[0,1,0,0,-5],[1,0,0,0,5],[1,1,0,0,-5]];perimeter=orthogonalPerimeter;outlineConnect=0;targetShapes=umlLifeline;portConstraint=eastwest;newEdgeStyle={&quot;curved&quot;:0,&quot;rounded&quot;:0};strokeColor=#457B9D;fontColor=#1D3557;fillColor=#A8DADC;" vertex="1" parent="1">
          <mxGeometry x="392" y="4681" width="10" height="37" as="geometry" />
        </mxCell>
        <mxCell id="uZYmgcz1Foe-FGkYyfnS-298" value="" style="endArrow=none;dashed=1;html=1;dashPattern=1 3;strokeWidth=2;rounded=0;entryX=0.5;entryY=0.5;entryDx=0;entryDy=0;entryPerimeter=0;labelBackgroundColor=none;strokeColor=#457B9D;fontColor=default;" edge="1" parent="1" source="uZYmgcz1Foe-FGkYyfnS-300" target="uZYmgcz1Foe-FGkYyfnS-297">
          <mxGeometry width="50" height="50" relative="1" as="geometry">
            <mxPoint x="120" y="5200" as="sourcePoint" />
            <mxPoint x="120" y="4400" as="targetPoint" />
          </mxGeometry>
        </mxCell>
        <mxCell id="uZYmgcz1Foe-FGkYyfnS-297" value="" style="html=1;points=[[0,0,0,0,5],[0,1,0,0,-5],[1,0,0,0,5],[1,1,0,0,-5]];perimeter=orthogonalPerimeter;outlineConnect=0;targetShapes=umlLifeline;portConstraint=eastwest;newEdgeStyle={&quot;curved&quot;:0,&quot;rounded&quot;:0};strokeColor=#457B9D;fontColor=#1D3557;fillColor=#A8DADC;" vertex="1" parent="1">
          <mxGeometry x="115" y="4723" width="10" height="37" as="geometry" />
        </mxCell>
        <mxCell id="uZYmgcz1Foe-FGkYyfnS-299" value="" style="html=1;points=[[0,0,0,0,5],[0,1,0,0,-5],[1,0,0,0,5],[1,1,0,0,-5]];perimeter=orthogonalPerimeter;outlineConnect=0;targetShapes=umlLifeline;portConstraint=eastwest;newEdgeStyle={&quot;curved&quot;:0,&quot;rounded&quot;:0};strokeColor=#457B9D;fontColor=#1D3557;fillColor=#A8DADC;" vertex="1" parent="1">
          <mxGeometry x="394" y="4760" width="10" height="21" as="geometry" />
        </mxCell>
        <mxCell id="uZYmgcz1Foe-FGkYyfnS-301" value="" style="endArrow=none;dashed=1;html=1;dashPattern=1 3;strokeWidth=2;rounded=0;entryX=0.5;entryY=0.5;entryDx=0;entryDy=0;entryPerimeter=0;labelBackgroundColor=none;strokeColor=#457B9D;fontColor=default;" edge="1" parent="1" source="uZYmgcz1Foe-FGkYyfnS-303" target="uZYmgcz1Foe-FGkYyfnS-300">
          <mxGeometry width="50" height="50" relative="1" as="geometry">
            <mxPoint x="120" y="5200" as="sourcePoint" />
            <mxPoint x="120" y="4742" as="targetPoint" />
          </mxGeometry>
        </mxCell>
        <mxCell id="uZYmgcz1Foe-FGkYyfnS-300" value="" style="html=1;points=[[0,0,0,0,5],[0,1,0,0,-5],[1,0,0,0,5],[1,1,0,0,-5]];perimeter=orthogonalPerimeter;outlineConnect=0;targetShapes=umlLifeline;portConstraint=eastwest;newEdgeStyle={&quot;curved&quot;:0,&quot;rounded&quot;:0};strokeColor=#457B9D;fontColor=#1D3557;fillColor=#A8DADC;" vertex="1" parent="1">
          <mxGeometry x="115" y="4779" width="10" height="21" as="geometry" />
        </mxCell>
        <mxCell id="uZYmgcz1Foe-FGkYyfnS-302" value="" style="html=1;points=[[0,0,0,0,5],[0,1,0,0,-5],[1,0,0,0,5],[1,1,0,0,-5]];perimeter=orthogonalPerimeter;outlineConnect=0;targetShapes=umlLifeline;portConstraint=eastwest;newEdgeStyle={&quot;curved&quot;:0,&quot;rounded&quot;:0};strokeColor=#457B9D;fontColor=#1D3557;fillColor=#A8DADC;" vertex="1" parent="1">
          <mxGeometry x="394" y="4798" width="10" height="21" as="geometry" />
        </mxCell>
        <mxCell id="uZYmgcz1Foe-FGkYyfnS-304" value="" style="endArrow=none;dashed=1;html=1;dashPattern=1 3;strokeWidth=2;rounded=0;entryX=0.5;entryY=0.5;entryDx=0;entryDy=0;entryPerimeter=0;labelBackgroundColor=none;strokeColor=#457B9D;fontColor=default;" edge="1" parent="1" source="uZYmgcz1Foe-FGkYyfnS-306" target="uZYmgcz1Foe-FGkYyfnS-303">
          <mxGeometry width="50" height="50" relative="1" as="geometry">
            <mxPoint x="120" y="5200" as="sourcePoint" />
            <mxPoint x="120" y="4790" as="targetPoint" />
          </mxGeometry>
        </mxCell>
        <mxCell id="uZYmgcz1Foe-FGkYyfnS-303" value="" style="html=1;points=[[0,0,0,0,5],[0,1,0,0,-5],[1,0,0,0,5],[1,1,0,0,-5]];perimeter=orthogonalPerimeter;outlineConnect=0;targetShapes=umlLifeline;portConstraint=eastwest;newEdgeStyle={&quot;curved&quot;:0,&quot;rounded&quot;:0};strokeColor=#457B9D;fontColor=#1D3557;fillColor=#A8DADC;" vertex="1" parent="1">
          <mxGeometry x="115" y="4819" width="10" height="21" as="geometry" />
        </mxCell>
        <mxCell id="uZYmgcz1Foe-FGkYyfnS-305" value="" style="html=1;points=[[0,0,0,0,5],[0,1,0,0,-5],[1,0,0,0,5],[1,1,0,0,-5]];perimeter=orthogonalPerimeter;outlineConnect=0;targetShapes=umlLifeline;portConstraint=eastwest;newEdgeStyle={&quot;curved&quot;:0,&quot;rounded&quot;:0};strokeColor=#457B9D;fontColor=#1D3557;fillColor=#A8DADC;" vertex="1" parent="1">
          <mxGeometry x="394" y="4836" width="10" height="21" as="geometry" />
        </mxCell>
        <mxCell id="uZYmgcz1Foe-FGkYyfnS-307" value="" style="endArrow=none;dashed=1;html=1;dashPattern=1 3;strokeWidth=2;rounded=0;entryX=0.5;entryY=0.5;entryDx=0;entryDy=0;entryPerimeter=0;labelBackgroundColor=none;strokeColor=#457B9D;fontColor=default;" edge="1" parent="1" target="uZYmgcz1Foe-FGkYyfnS-306">
          <mxGeometry width="50" height="50" relative="1" as="geometry">
            <mxPoint x="120" y="5200" as="sourcePoint" />
            <mxPoint x="120" y="4830" as="targetPoint" />
          </mxGeometry>
        </mxCell>
        <mxCell id="uZYmgcz1Foe-FGkYyfnS-306" value="" style="html=1;points=[[0,0,0,0,5],[0,1,0,0,-5],[1,0,0,0,5],[1,1,0,0,-5]];perimeter=orthogonalPerimeter;outlineConnect=0;targetShapes=umlLifeline;portConstraint=eastwest;newEdgeStyle={&quot;curved&quot;:0,&quot;rounded&quot;:0};strokeColor=#457B9D;fontColor=#1D3557;fillColor=#A8DADC;" vertex="1" parent="1">
          <mxGeometry x="115" y="4862" width="10" height="21" as="geometry" />
        </mxCell>
        <mxCell id="uZYmgcz1Foe-FGkYyfnS-308" value="" style="html=1;points=[[0,0,0,0,5],[0,1,0,0,-5],[1,0,0,0,5],[1,1,0,0,-5]];perimeter=orthogonalPerimeter;outlineConnect=0;targetShapes=umlLifeline;portConstraint=eastwest;newEdgeStyle={&quot;curved&quot;:0,&quot;rounded&quot;:0};strokeColor=#457B9D;fontColor=#1D3557;fillColor=#A8DADC;" vertex="1" parent="1">
          <mxGeometry x="394" y="4880" width="10" height="38" as="geometry" />
        </mxCell>
        <mxCell id="uZYmgcz1Foe-FGkYyfnS-310" value="" style="endArrow=none;dashed=1;html=1;dashPattern=1 3;strokeWidth=2;rounded=0;entryX=0.467;entryY=1.014;entryDx=0;entryDy=0;entryPerimeter=0;labelBackgroundColor=none;strokeColor=#457B9D;fontColor=default;" edge="1" parent="1" source="uZYmgcz1Foe-FGkYyfnS-315" target="uZYmgcz1Foe-FGkYyfnS-309">
          <mxGeometry width="50" height="50" relative="1" as="geometry">
            <mxPoint x="681" y="5200" as="sourcePoint" />
            <mxPoint x="680" y="4279" as="targetPoint" />
          </mxGeometry>
        </mxCell>
        <mxCell id="uZYmgcz1Foe-FGkYyfnS-309" value="" style="html=1;points=[[0,0,0,0,5],[0,1,0,0,-5],[1,0,0,0,5],[1,1,0,0,-5]];perimeter=orthogonalPerimeter;outlineConnect=0;targetShapes=umlLifeline;portConstraint=eastwest;newEdgeStyle={&quot;curved&quot;:0,&quot;rounded&quot;:0};strokeColor=#457B9D;fontColor=#1D3557;fillColor=#A8DADC;" vertex="1" parent="1">
          <mxGeometry x="673" y="4921" width="10" height="80" as="geometry" />
        </mxCell>
        <mxCell id="uZYmgcz1Foe-FGkYyfnS-312" value="" style="endArrow=none;dashed=1;html=1;dashPattern=1 3;strokeWidth=2;rounded=0;entryX=0.514;entryY=1.025;entryDx=0;entryDy=0;entryPerimeter=0;labelBackgroundColor=none;strokeColor=#457B9D;fontColor=default;" edge="1" parent="1" target="uZYmgcz1Foe-FGkYyfnS-311">
          <mxGeometry width="50" height="50" relative="1" as="geometry">
            <mxPoint x="1522" y="5200" as="sourcePoint" />
            <mxPoint x="1524" y="3479" as="targetPoint" />
          </mxGeometry>
        </mxCell>
        <mxCell id="uZYmgcz1Foe-FGkYyfnS-311" value="" style="html=1;points=[[0,0,0,0,5],[0,1,0,0,-5],[1,0,0,0,5],[1,1,0,0,-5]];perimeter=orthogonalPerimeter;outlineConnect=0;targetShapes=umlLifeline;portConstraint=eastwest;newEdgeStyle={&quot;curved&quot;:0,&quot;rounded&quot;:0};strokeColor=#457B9D;fontColor=#1D3557;fillColor=#A8DADC;" vertex="1" parent="1">
          <mxGeometry x="1516" y="5001" width="10" height="38" as="geometry" />
        </mxCell>
        <mxCell id="uZYmgcz1Foe-FGkYyfnS-314" value="" style="endArrow=none;dashed=1;html=1;dashPattern=1 3;strokeWidth=2;rounded=0;entryX=0.5;entryY=1;entryDx=0;entryDy=0;labelBackgroundColor=none;strokeColor=#457B9D;fontColor=default;" edge="1" parent="1" target="uZYmgcz1Foe-FGkYyfnS-313">
          <mxGeometry width="50" height="50" relative="1" as="geometry">
            <mxPoint x="1240" y="5200" as="sourcePoint" />
            <mxPoint x="1241" y="3514" as="targetPoint" />
          </mxGeometry>
        </mxCell>
        <mxCell id="uZYmgcz1Foe-FGkYyfnS-313" value="" style="html=1;points=[[0,0,0,0,5],[0,1,0,0,-5],[1,0,0,0,5],[1,1,0,0,-5]];perimeter=orthogonalPerimeter;outlineConnect=0;targetShapes=umlLifeline;portConstraint=eastwest;newEdgeStyle={&quot;curved&quot;:0,&quot;rounded&quot;:0};strokeColor=#457B9D;fontColor=#1D3557;fillColor=#A8DADC;" vertex="1" parent="1">
          <mxGeometry x="1236" y="5042" width="10" height="31" as="geometry" />
        </mxCell>
        <mxCell id="uZYmgcz1Foe-FGkYyfnS-316" value="" style="endArrow=none;dashed=1;html=1;dashPattern=1 3;strokeWidth=2;rounded=0;entryX=0.467;entryY=1.014;entryDx=0;entryDy=0;entryPerimeter=0;labelBackgroundColor=none;strokeColor=#457B9D;fontColor=default;" edge="1" parent="1" target="uZYmgcz1Foe-FGkYyfnS-315">
          <mxGeometry width="50" height="50" relative="1" as="geometry">
            <mxPoint x="681" y="5200" as="sourcePoint" />
            <mxPoint x="678" y="5002" as="targetPoint" />
          </mxGeometry>
        </mxCell>
        <mxCell id="uZYmgcz1Foe-FGkYyfnS-315" value="" style="html=1;points=[[0,0,0,0,5],[0,1,0,0,-5],[1,0,0,0,5],[1,1,0,0,-5]];perimeter=orthogonalPerimeter;outlineConnect=0;targetShapes=umlLifeline;portConstraint=eastwest;newEdgeStyle={&quot;curved&quot;:0,&quot;rounded&quot;:0};strokeColor=#457B9D;fontColor=#1D3557;fillColor=#A8DADC;" vertex="1" parent="1">
          <mxGeometry x="675" y="5079" width="10" height="31" as="geometry" />
        </mxCell>
        <mxCell id="uZYmgcz1Foe-FGkYyfnS-41" value="Alt" style="shape=umlFrame;whiteSpace=wrap;html=1;pointerEvents=0;labelBackgroundColor=none;fillColor=#A8DADC;strokeColor=#457B9D;fontColor=#1D3557;" vertex="1" parent="1">
          <mxGeometry x="70" y="1720" width="1810" height="2040" as="geometry" />
        </mxCell>
        <mxCell id="uZYmgcz1Foe-FGkYyfnS-42" value="[Reply - Empty]" style="text;html=1;strokeColor=none;fillColor=none;align=center;verticalAlign=middle;whiteSpace=wrap;rounded=0;fontColor=#1D3557;" vertex="1" parent="1">
          <mxGeometry x="120" y="1809" width="120" height="30" as="geometry" />
        </mxCell>
        <mxCell id="uZYmgcz1Foe-FGkYyfnS-43" value="Alt" style="shape=umlFrame;whiteSpace=wrap;html=1;pointerEvents=0;strokeColor=#457B9D;fontColor=#1D3557;fillColor=#A8DADC;" vertex="1" parent="1">
          <mxGeometry x="70" y="1800" width="380" height="320" as="geometry" />
        </mxCell>
        <mxCell id="uZYmgcz1Foe-FGkYyfnS-44" value="[Sender (Login) = Current User &#39;Login&#39;]" style="text;html=1;strokeColor=none;fillColor=none;align=center;verticalAlign=middle;whiteSpace=wrap;rounded=0;fontColor=#1D3557;" vertex="1" parent="1">
          <mxGeometry x="125" y="1730" width="235" height="30" as="geometry" />
        </mxCell>
        <mxCell id="uZYmgcz1Foe-FGkYyfnS-46" value="[Sender (Login) != Current User &#39;Login&#39;]" style="text;html=1;strokeColor=none;fillColor=none;align=center;verticalAlign=middle;whiteSpace=wrap;rounded=0;fontColor=#1D3557;" vertex="1" parent="1">
          <mxGeometry x="76.83" y="3045" width="235" height="30" as="geometry" />
        </mxCell>
        <mxCell id="uZYmgcz1Foe-FGkYyfnS-53" value="Opt" style="shape=umlFrame;whiteSpace=wrap;html=1;pointerEvents=0;strokeColor=#457B9D;fontColor=#1D3557;fillColor=#A8DADC;" vertex="1" parent="1">
          <mxGeometry x="70" y="2140" width="1770" height="340" as="geometry" />
        </mxCell>
        <mxCell id="uZYmgcz1Foe-FGkYyfnS-54" value="[Closing Complaint]" style="text;html=1;strokeColor=none;fillColor=none;align=center;verticalAlign=middle;whiteSpace=wrap;rounded=0;fontColor=#1D3557;" vertex="1" parent="1">
          <mxGeometry x="76.83" y="2140" width="235" height="30" as="geometry" />
        </mxCell>
        <mxCell id="uZYmgcz1Foe-FGkYyfnS-55" value="[Reply - Not Empty]" style="text;html=1;strokeColor=none;fillColor=none;align=center;verticalAlign=middle;whiteSpace=wrap;rounded=0;fontColor=#1D3557;" vertex="1" parent="1">
          <mxGeometry x="125" y="1970" width="120" height="30" as="geometry" />
        </mxCell>
        <mxCell id="uZYmgcz1Foe-FGkYyfnS-59" value="Loop" style="shape=umlFrame;whiteSpace=wrap;html=1;pointerEvents=0;strokeColor=#457B9D;fontColor=#1D3557;fillColor=#A8DADC;" vertex="1" parent="1">
          <mxGeometry x="620" y="2240" width="980" height="160" as="geometry" />
        </mxCell>
        <mxCell id="uZYmgcz1Foe-FGkYyfnS-60" value="[While Transaction Fails]" style="text;html=1;strokeColor=none;fillColor=none;align=center;verticalAlign=middle;whiteSpace=wrap;rounded=0;fontColor=#1D3557;" vertex="1" parent="1">
          <mxGeometry x="680" y="2240" width="160" height="30" as="geometry" />
        </mxCell>
        <mxCell id="uZYmgcz1Foe-FGkYyfnS-71" value="Loop" style="shape=umlFrame;whiteSpace=wrap;html=1;pointerEvents=0;strokeColor=#457B9D;fontColor=#1D3557;fillColor=#A8DADC;" vertex="1" parent="1">
          <mxGeometry x="630" y="2770" width="980" height="150" as="geometry" />
        </mxCell>
        <mxCell id="uZYmgcz1Foe-FGkYyfnS-72" value="[While Transaction Fails]" style="text;html=1;strokeColor=none;fillColor=none;align=center;verticalAlign=middle;whiteSpace=wrap;rounded=0;fontColor=#1D3557;" vertex="1" parent="1">
          <mxGeometry x="690" y="2770" width="160" height="30" as="geometry" />
        </mxCell>
        <mxCell id="uZYmgcz1Foe-FGkYyfnS-74" value="Opt" style="shape=umlFrame;whiteSpace=wrap;html=1;pointerEvents=0;strokeColor=#457B9D;fontColor=#1D3557;fillColor=#A8DADC;" vertex="1" parent="1">
          <mxGeometry x="70" y="2500" width="1770" height="520" as="geometry" />
        </mxCell>
        <mxCell id="uZYmgcz1Foe-FGkYyfnS-75" value="[Editing Complaint]" style="text;html=1;strokeColor=none;fillColor=none;align=center;verticalAlign=middle;whiteSpace=wrap;rounded=0;fontColor=#1D3557;" vertex="1" parent="1">
          <mxGeometry x="76.83" y="2500" width="235" height="30" as="geometry" />
        </mxCell>
        <mxCell id="uZYmgcz1Foe-FGkYyfnS-85" value="Alt" style="shape=umlFrame;whiteSpace=wrap;html=1;pointerEvents=0;strokeColor=#457B9D;fontColor=#1D3557;fillColor=#A8DADC;" vertex="1" parent="1">
          <mxGeometry x="70" y="3080" width="1780" height="680" as="geometry" />
        </mxCell>
        <mxCell id="uZYmgcz1Foe-FGkYyfnS-91" value="Loop" style="shape=umlFrame;whiteSpace=wrap;html=1;pointerEvents=0;strokeColor=#457B9D;fontColor=#1D3557;fillColor=#A8DADC;" vertex="1" parent="1">
          <mxGeometry x="610" y="3410" width="980" height="140" as="geometry" />
        </mxCell>
        <mxCell id="uZYmgcz1Foe-FGkYyfnS-92" value="[While Transaction Fails]" style="text;html=1;strokeColor=none;fillColor=none;align=center;verticalAlign=middle;whiteSpace=wrap;rounded=0;fontColor=#1D3557;" vertex="1" parent="1">
          <mxGeometry x="670" y="3410" width="160" height="30" as="geometry" />
        </mxCell>
        <mxCell id="uZYmgcz1Foe-FGkYyfnS-97" value="Opt" style="shape=umlFrame;whiteSpace=wrap;html=1;pointerEvents=0;strokeColor=#457B9D;fontColor=#1D3557;fillColor=#A8DADC;" vertex="1" parent="1">
          <mxGeometry x="70" y="3180" width="1750" height="440" as="geometry" />
        </mxCell>
        <mxCell id="uZYmgcz1Foe-FGkYyfnS-98" value="[Replying to Complaint]" style="text;html=1;strokeColor=none;fillColor=none;align=center;verticalAlign=middle;whiteSpace=wrap;rounded=0;fontColor=#1D3557;" vertex="1" parent="1">
          <mxGeometry x="76.83" y="3190" width="255" height="20" as="geometry" />
        </mxCell>
        <mxCell id="uZYmgcz1Foe-FGkYyfnS-101" value="Alt" style="shape=umlFrame;whiteSpace=wrap;html=1;pointerEvents=0;strokeColor=#457B9D;fontColor=#1D3557;fillColor=#A8DADC;" vertex="1" parent="1">
          <mxGeometry x="70" y="1650" width="1850" height="2270" as="geometry" />
        </mxCell>
        <mxCell id="uZYmgcz1Foe-FGkYyfnS-102" value="[Complaint &#39;Closed Marker&#39; - False]" style="text;html=1;strokeColor=none;fillColor=none;align=center;verticalAlign=middle;whiteSpace=wrap;rounded=0;fontColor=#1D3557;" vertex="1" parent="1">
          <mxGeometry x="125" y="1660" width="235" height="30" as="geometry" />
        </mxCell>
        <mxCell id="uZYmgcz1Foe-FGkYyfnS-105" value="Alt" style="shape=umlFrame;whiteSpace=wrap;html=1;pointerEvents=0;strokeColor=#457B9D;fontColor=#1D3557;fillColor=#A8DADC;" vertex="1" parent="1">
          <mxGeometry x="70" y="760" width="1890" height="4350" as="geometry" />
        </mxCell>
        <mxCell id="uZYmgcz1Foe-FGkYyfnS-106" value="[Working With Existing Complaints]" style="text;html=1;strokeColor=none;fillColor=none;align=center;verticalAlign=middle;whiteSpace=wrap;rounded=0;fontColor=#1D3557;" vertex="1" parent="1">
          <mxGeometry x="135" y="770" width="205" height="30" as="geometry" />
        </mxCell>
        <mxCell id="uZYmgcz1Foe-FGkYyfnS-118" value="Opt" style="shape=umlFrame;whiteSpace=wrap;html=1;pointerEvents=0;strokeColor=#457B9D;fontColor=#1D3557;fillColor=#A8DADC;" vertex="1" parent="1">
          <mxGeometry x="70" y="4400" width="530" height="240" as="geometry" />
        </mxCell>
        <mxCell id="uZYmgcz1Foe-FGkYyfnS-119" value="[Flip The Switch]" style="text;html=1;strokeColor=none;fillColor=none;align=center;verticalAlign=middle;whiteSpace=wrap;rounded=0;fontColor=#1D3557;" vertex="1" parent="1">
          <mxGeometry x="127.83" y="4400" width="128" height="30" as="geometry" />
        </mxCell>
        <mxCell id="uZYmgcz1Foe-FGkYyfnS-131" value="Loop" style="shape=umlFrame;whiteSpace=wrap;html=1;pointerEvents=0;strokeColor=#457B9D;fontColor=#1D3557;fillColor=#A8DADC;" vertex="1" parent="1">
          <mxGeometry x="630" y="4935" width="980" height="175" as="geometry" />
        </mxCell>
        <mxCell id="uZYmgcz1Foe-FGkYyfnS-132" value="[While Transaction Fails]" style="text;html=1;strokeColor=none;fillColor=none;align=center;verticalAlign=middle;whiteSpace=wrap;rounded=0;fontColor=#1D3557;" vertex="1" parent="1">
          <mxGeometry x="690" y="4935" width="160" height="30" as="geometry" />
        </mxCell>
      </root>
    </mxGraphModel>
  </diagram>
</mxfile>
